<?xml version="1.0" standalone="no"?>
<!DOCTYPE svg PUBLIC "-//W3C//DTD SVG 1.1//EN" "http://www.w3.org/Graphics/SVG/1.1/DTD/svg11.dtd" >
<svg xmlns="http://www.w3.org/2000/svg">
<metadata></metadata>
<defs>
<font id="HelveticaNeueRegular" horiz-adv-x="1024" >
<font-face units-per-em="2048" ascent="1638" descent="-410" />
<missing-glyph horiz-adv-x="569" />
<glyph horiz-adv-x="0" />
<glyph horiz-adv-x="2048" />
<glyph unicode="&#xd;" horiz-adv-x="569" />
<glyph unicode=" "  horiz-adv-x="569" />
<glyph unicode="&#x09;" horiz-adv-x="569" />
<glyph unicode="&#xa0;" horiz-adv-x="569" />
<glyph unicode="!" horiz-adv-x="378" d="M170 0v201h41v-201h-41zM170 373v1089h41v-1089h-41z" />
<glyph unicode="&#x22;" horiz-adv-x="569" d="M150 1001v461h40v-461h-40zM379 1001v461h41v-461h-41z" />
<glyph unicode="#" horiz-adv-x="1138" d="M72 469v41h266l49 362h-258v41h268l64 480h41l-64 -480h350l64 480h41l-64 -480h238v-41h-248l-49 -362h240v-41h-248l-64 -469h-41l64 469h-352l-64 -469h-41l64 469h-256zM379 510h350l49 362h-350z" />
<glyph unicode="$" horiz-adv-x="1138" d="M12 485h41q0 -242 131 -359.5t359 -117.5v729q-172 39 -262.5 71t-158 105.5t-67.5 206.5q0 197 143.5 287t344.5 90v88h41v-90q219 0 353 -108.5t134 -333.5h-41q0 207 -122 304t-324 97v-684q211 -53 300 -84t152.5 -107.5t63.5 -220.5q0 -193 -153.5 -293t-362.5 -100 v-180h-41v182q-242 0 -386.5 131t-144.5 387zM96 1126q0 -170 108.5 -232.5t338.5 -113.5v676q-180 0 -313.5 -80t-133.5 -250zM584 6q195 0 335 89t140 268t-114 243t-361 121v-721z" />
<glyph unicode="%" horiz-adv-x="1402" d="M43 1069q0 154 82 251t231.5 97t232.5 -97t83 -249.5t-85 -253t-235 -100.5t-229.5 99t-79.5 253zM84 1068q0 -138 68.5 -224t200.5 -86t205 87t73 225t-68.5 222t-206 84t-205 -85t-67.5 -223zM180 -70l975 1532h47l-975 -1532h-47zM731 328q0 154 82 251t231.5 97 t232.5 -97.5t83 -249.5t-85 -253t-235 -101t-229.5 99.5t-79.5 253.5zM772 327q0 -138 68.5 -224.5t200.5 -86.5t205 87t73 225.5t-68.5 222.5t-206 84t-205 -85t-67.5 -223z" />
<glyph unicode="&#x26;" horiz-adv-x="1175" d="M90 340q0 174 124 275.5t269 191.5q-70 90 -143.5 194.5t-73.5 188.5q0 133 89 202.5t213 69.5t210 -73.5t86 -197.5t-68.5 -190.5t-252.5 -203.5l385 -488q49 115 49 258h41q0 -156 -62 -295l215 -272h-53l-182 231q-66 -121 -173.5 -193.5t-263 -72.5t-282.5 100.5 t-127 274.5zM131 328q0 -150 111.5 -236t259.5 -86q278 0 407 264l-401 504q-190 -121 -283.5 -209t-93.5 -237zM307 1198.5q0 -99.5 211 -371.5q150 102 227.5 177t77.5 183.5t-73.5 171t-183.5 62.5t-184.5 -61.5t-74.5 -161z" />
<glyph unicode="'" horiz-adv-x="342" d="M152 1001v461h41v-461h-41z" />
<glyph unicode="(" horiz-adv-x="454" d="M139 578q0 478 238 919h41q-238 -445 -238 -934t240 -925h-41q-125 242 -182.5 460.5t-57.5 479.5z" />
<glyph unicode=")" horiz-adv-x="454" d="M35 1497h41q125 -242 182 -461t57 -479q0 -479 -237 -919h-41q237 443 237 933t-239 926z" />
<glyph unicode="*" horiz-adv-x="720" d="M66 1225l12 39l258 -88v286h41v-286l270 88l8 -39l-266 -88l170 -224l-33 -24l-170 221l-172 -213l-32 27l180 213z" />
<glyph unicode="+" horiz-adv-x="1228" d="M98 498v41h496v497h41v-497h495v-41h-495v-498h-41v498h-496z" />
<glyph unicode="," horiz-adv-x="569" d="M215 -203q49 49 49 203v201h41v-201q0 -98 -19.5 -153.5t-70.5 -90.5v41z" />
<glyph unicode="-" horiz-adv-x="681" d="M162 528v41h358v-41h-358z" />
<glyph unicode="." horiz-adv-x="569" d="M264 0v201h41v-201h-41z" />
<glyph unicode="/" horiz-adv-x="681" d="M-14 -35l669 1532h41l-669 -1532h-41z" />
<glyph unicode="0" horiz-adv-x="1138" d="M43 698q0 301 125 510t400 209t401.5 -211t126.5 -512t-125.5 -510t-400.5 -209t-401 211t-126 512zM84 695q0 -280 111.5 -479.5t372.5 -199.5t374 201t113 480.5t-112 479t-373 199.5t-373.5 -200.5t-112.5 -480.5z" />
<glyph unicode="1" horiz-adv-x="1138" d="M236 1094v41q123 41 200.5 97t169.5 161h45v-1393h-41v1339q-63 -86 -165.5 -150.5t-208.5 -94.5z" />
<glyph unicode="2" horiz-adv-x="1138" d="M113 0q0 111 57 195t145 154.5t291 210.5t285 254t82 228q0 158 -107.5 246t-279.5 88q-211 0 -309.5 -117.5t-98.5 -322.5h-41q0 231 115 356t318.5 125t323.5 -96t120 -279q0 -121 -81 -239.5t-281.5 -259t-285.5 -205.5q-195 -147 -212 -297h897v-41h-938z" />
<glyph unicode="3" horiz-adv-x="1138" d="M82 471h41q0 -219 122 -337t343 -118q178 0 304 98.5t126 269.5t-109.5 258t-290.5 87h-100v41h100q158 0 265.5 72.5t107.5 229.5t-115.5 230.5t-300 73.5t-299 -104.5t-114.5 -310.5h-41q0 223 125 339.5t329.5 116.5t330.5 -84t126 -258q0 -141 -83 -226t-216 -97 q137 -16 231.5 -107.5t94.5 -268.5t-137.5 -289t-333.5 -112q-238 0 -372 130.5t-134 365.5z" />
<glyph unicode="4" horiz-adv-x="1138" d="M70 362v50l696 981h51v-990h252v-41h-252v-362h-41v362h-706zM111 403h665v932z" />
<glyph unicode="5" horiz-adv-x="1138" d="M76 446h41q0 -203 117.5 -316.5t322.5 -113.5t323.5 121t118.5 321t-120.5 322.5t-319.5 122.5q-127 0 -229.5 -54t-159.5 -159h-51l149 703h715v-41h-682l-127 -596q59 92 159.5 140t225.5 48q215 0 348 -135t133 -350t-132 -349.5t-351 -134.5t-350 125t-131 346z" />
<glyph unicode="6" horiz-adv-x="1138" d="M80 657q0 311 122 535.5t402 224.5q176 0 292 -99t138 -253h-41q-37 170 -147.5 240.5t-243.5 70.5q-193 0 -300 -121.5t-145 -296t-38 -370.5q35 150 164 250t307 100t323.5 -136t145.5 -343t-142.5 -345.5t-338.5 -138.5q-135 0 -241 63.5t-163 152t-75.5 201 t-18.5 265.5zM137 457q0 -182 129 -311.5t312 -129.5q182 0 311 129t129 312q0 182 -129 311t-311 129t-311.5 -129t-129.5 -311z" />
<glyph unicode="7" horiz-adv-x="1138" d="M125 1352v41h889v-56q-307 -307 -468 -624.5t-161 -712.5h-41q0 391 161 721t464 631h-844z" />
<glyph unicode="8" horiz-adv-x="1138" d="M63 389q0 160 95.5 259.5t261.5 115.5q-125 18 -206 100t-81 201q0 178 120 265t315.5 87t316.5 -87t121 -265q0 -119 -81 -200t-206 -97q164 -18 260 -118.5t96 -260.5q0 -207 -142 -310.5t-362.5 -103.5t-364 104.5t-143.5 309.5zM104 389q0 -188 132.5 -280.5 t334 -92.5t332.5 91.5t131 279.5t-130 271t-336 83t-335 -81.5t-129 -270.5zM174 1078.5q0 -152.5 120 -224.5t276.5 -72t275.5 72t119 223.5t-113 225t-284 73.5t-282.5 -72.5t-111.5 -225z" />
<glyph unicode="9" horiz-adv-x="1138" d="M80 934q0 207 142.5 345t338.5 138q135 0 240.5 -63.5t163 -151.5t77 -199.5t19.5 -267.5q0 -311 -123 -535.5t-403 -224.5q-176 0 -292 99.5t-139 253.5h41q37 -170 147.5 -241t244.5 -71q193 0 300 122t145 296t38 371q-35 -150 -164 -250t-307 -100t-323.5 136 t-145.5 343zM121 936q0 -182 129 -311t311 -129t311 129t129 311t-129 311t-311 129t-311 -129t-129 -311z" />
<glyph unicode=":" horiz-adv-x="569" d="M264 0v201h41v-201h-41zM264 852v201h41v-201h-41z" />
<glyph unicode=";" horiz-adv-x="569" d="M215 -203q49 49 49 203v201h41v-201q0 -98 -19.5 -153.5t-70.5 -90.5v41zM264 852v201h41v-201h-41z" />
<glyph unicode="&#x3c;" horiz-adv-x="1228" d="M94 494v49l1041 510v-43l-1004 -492l1004 -491v-43z" />
<glyph unicode="=" horiz-adv-x="1228" d="M98 299v41h1032v-41h-1032zM98 696v41h1032v-41h-1032z" />
<glyph unicode="&#x3e;" horiz-adv-x="1228" d="M94 -16v43l1004 491l-1004 492v43l1041 -510v-49z" />
<glyph unicode="?" d="M72 1010q0 221 115.5 354t328.5 133q176 0 290 -90t114 -236.5t-53.5 -222.5t-147.5 -157q-117 -113 -160 -196t-43 -222h-41q0 139 41 229t128 174t144 139q90 111 90.5 247t-100 215t-262.5 79q-199 0 -301 -119.5t-102 -326.5h-41zM475 0v201h41v-201h-41z" />
<glyph unicode="@" horiz-adv-x="1638" d="M117 723q0 315 216 525t512 210t486.5 -169t190.5 -447q0 -227 -142.5 -399.5t-300.5 -172.5q-55 0 -89 30t-34 77q0 14 2 22q-98 -129 -282 -129q-119 0 -199 86t-80 211q0 209 140.5 400.5t345.5 191.5q98 0 176 -47t104 -127l54 135h43l-228 -590q-35 -98 -35 -139 q0 -80 86 -80q135 0 266.5 159t131.5 372q0 254 -175.5 414.5t-460 160.5t-486 -201.5t-201.5 -492.5q0 -336 200.5 -521.5t499.5 -185.5q180 0 337 89.5t257 234.5h47q-100 -164 -275 -264.5t-366 -100.5q-303 0 -522 190.5t-219 557.5zM438 567q0 -111 68.5 -183.5 t171.5 -72.5q228 0 321 246l146 377q-27 98 -101.5 141t-169.5 43q-182 0 -309 -181t-127 -370z" />
<glyph unicode="A" horiz-adv-x="1177" d="M-25 0l594 1462h54l577 -1462h-45l-192 481h-746l-194 -481h-48zM233 522h713l-348 899z" />
<glyph unicode="B" horiz-adv-x="1251" d="M96 0v1462h629q180 0 296 -94t116 -270q0 -135 -89.5 -234.5t-220.5 -99.5q147 -4 251 -103.5t104 -278t-132 -280.5t-350 -102h-604zM137 41h582q186 0 304 90t118 266t-120 260t-296 84h-588v-700zM137 782h588q156 0 263.5 82t107.5 237t-103.5 237.5t-267.5 82.5 h-588v-639z" />
<glyph unicode="C" horiz-adv-x="1402" d="M51 707.5q0 320.5 171 555t517 234.5q264 0 424 -155.5t160 -317.5h-41q-14 170 -163.5 301t-379.5 131q-328 0 -487.5 -230.5t-159.5 -516t168 -494.5t437.5 -209t426 156.5t191.5 410.5h41q-39 -276 -206 -442t-448.5 -166t-466 211t-184.5 531.5z" />
<glyph unicode="D" horiz-adv-x="1327" d="M111 0v1462h512q258 0 440 -169t182 -549t-197.5 -562t-488.5 -182h-448zM152 41h417q276 0 455.5 176t179.5 532.5t-169 514t-423 157.5h-460v-1380z" />
<glyph unicode="E" horiz-adv-x="1099" d="M111 0v1462h970v-41h-929v-639h874v-41h-874v-700h938v-41h-979z" />
<glyph unicode="F" horiz-adv-x="985" d="M111 0v1462h901v-41h-860v-639h778v-41h-778v-741h-41z" />
<glyph unicode="G" horiz-adv-x="1478" d="M66 730q0 333 185 550t501 217q244 0 407.5 -133t198.5 -358h-41q-39 207 -189.5 328.5t-375.5 121.5q-295 0 -470.5 -208t-175.5 -519t170 -517t482 -206q246 0 413.5 160t167.5 401v76h-567v41h608v-686h-41v364q-59 -184 -216.5 -290.5t-370.5 -106.5q-328 0 -507 216 t-179 549z" />
<glyph unicode="H" horiz-adv-x="1327" d="M111 0v1462h41v-680h1024v680h41v-1462h-41v741h-1024v-741h-41z" />
<glyph unicode="I" horiz-adv-x="262" d="M111 0v1462h41v-1462h-41z" />
<glyph unicode="J" horiz-adv-x="948" d="M37 365v88h41v-88q0 -358 348 -359q184 0 272 90t88 316v1050h41v-1081q0 -416 -401 -416q-197 0 -293 109.5t-96 290.5z" />
<glyph unicode="K" horiz-adv-x="1214" d="M111 0v1462h41v-889l1013 889h62l-707 -622l748 -840h-56l-725 815l-335 -297v-518h-41z" />
<glyph unicode="L" horiz-adv-x="985" d="M111 0v1462h41v-1421h854v-41h-895z" />
<glyph unicode="M" horiz-adv-x="1597" d="M111 0v1462h67l619 -1409l622 1409h68v-1462h-41v1411l-625 -1411h-45l-620 1411l-4 -1411h-41z" />
<glyph unicode="N" horiz-adv-x="1327" d="M111 0v1462h61l999 -1411l5 1411h41v-1462h-62l-999 1411l-4 -1411h-41z" />
<glyph unicode="O" horiz-adv-x="1476" d="M66 731q0 328 178 547t495 219t495.5 -219t178.5 -547t-178 -547t-496 -219q-317 0 -495 219t-178 547zM106 731q0 -322 171 -523.5t462 -201.5t462 202t171 523q0 322 -171 523.5t-462 201.5t-462 -201.5t-171 -523.5z" />
<glyph unicode="P" horiz-adv-x="1175" d="M111 0v1462h591q211 0 328 -102.5t117 -293.5t-128 -295.5t-337 -104.5h-530v-666h-41zM152 707h550q176 0 290 95t114 261q0 358 -404 358h-550v-714z" />
<glyph unicode="Q" horiz-adv-x="1476" d="M66 731q0 328 178 547t495 219t495.5 -219t178.5 -547q0 -373 -217 -586l236 -161l-21 -29l-242 164q-175 -154 -430 -154q-317 0 -495 219t-178 547zM106 731q0 -322 171.5 -523.5t461.5 -201.5q230 0 394 137l-259 176l23 33l264 -182q100 96 155.5 240.5t55.5 320.5 q0 322 -171 523.5t-462 201.5t-462 -201.5t-171 -523.5z" />
<glyph unicode="R" horiz-adv-x="1251" d="M111 0v1462h598q446 0 446 -375q0 -145 -81 -244.5t-232 -131.5q174 -27 231 -122t57 -315t35 -274h-45q-30 77 -30 291.5t-76 304.5t-312 90h-550v-686h-41zM152 727h546q176 0 296 91t120 274q0 329 -395 329h-567v-694z" />
<glyph unicode="S" horiz-adv-x="1251" d="M70 485h41q0 -250 140 -364.5t390 -114.5q195 0 335 89t140 272t-113.5 241t-356.5 116t-388 114.5t-145 268.5t146.5 301t366 89t361 -106.5t141.5 -337.5h-41q0 211 -129 307t-330.5 96t-337.5 -79t-136 -270.5t132 -237.5t358 -102t306 -84t143.5 -104.5t63.5 -220.5 q0 -193 -153.5 -293t-362.5 -100q-264 0 -417.5 127t-153.5 393z" />
<glyph unicode="T" d="M-35 1421v41h1094v-41h-527v-1421h-40v1421h-527z" />
<glyph unicode="U" horiz-adv-x="1294" d="M111 545v917h41v-917q0 -539 495 -539q496 0 496 539v917h41v-917q0 -287 -138.5 -433.5t-398.5 -146.5q-537 0 -536 580z" />
<glyph unicode="V" horiz-adv-x="1101" d="M-37 1462h41l553 -1409l541 1409h41l-557 -1462h-45z" />
<glyph unicode="W" horiz-adv-x="1781" d="M-20 1462h43l413 -1411l426 1411h60l428 -1411l411 1411h41l-424 -1462h-55l-430 1411l-426 -1411h-55z" />
<glyph unicode="X" horiz-adv-x="1064" d="M-55 0l563 752l-533 710h54l506 -678l509 678h52l-533 -710l557 -752h-51l-534 719l-539 -719h-51z" />
<glyph unicode="Y" horiz-adv-x="1101" d="M-61 1462h51l561 -803l563 803h49l-592 -846v-616h-41v616z" />
<glyph unicode="Z" d="M-39 0v55l1022 1366h-965v41h1006v-55l-1022 -1366h1038v-41h-1079z" />
<glyph unicode="[" horiz-adv-x="454" d="M197 -362v1859h231v-41h-190v-1778h190v-40h-231z" />
<glyph unicode="\" horiz-adv-x="681" d="M-14 1497h41l669 -1532h-41z" />
<glyph unicode="]" horiz-adv-x="454" d="M27 -322h190v1778h-190v41h231v-1859h-231v40z" />
<glyph unicode="^" horiz-adv-x="1228" d="M121 465l473 928h41l473 -928h-41l-453 887l-452 -887h-41z" />
<glyph unicode="_" d="M0 -154h1024v-102h-1024v102z" />
<glyph unicode="`" horiz-adv-x="266" d="M-78 1497h60l256 -295h-31z" />
<glyph unicode="a" horiz-adv-x="985" d="M45 260q0 176 102.5 245.5t260.5 69.5q240 0 325.5 29t85.5 149.5t-59.5 201.5t-236.5 81t-274 -81t-97 -228h-41q0 156 105.5 253t278.5 97t269 -69.5t96 -231.5v-670q0 -69 84 -69h25q16 4 24 4v-41h-30q-88 0 -116 25.5t-28 76.5v138q-37 -109 -151.5 -187t-272.5 -78 t-254 74t-96 211zM86 260q0 -102 73.5 -173t252 -71t293 121t114.5 287v194q-31 -41 -116 -62t-263.5 -21t-266 -58.5t-87.5 -216.5z" />
<glyph unicode="b" horiz-adv-x="1099" d="M113 0v1462h41v-704q41 147 151.5 233t274.5 86q209 0 328.5 -159.5t119.5 -398.5t-121 -391.5t-327 -152.5q-158 0 -269.5 87.5t-152.5 232.5l-4 -295h-41zM154 537.5q0 -228.5 114.5 -375t310.5 -146.5t302 146.5t106 357.5t-102.5 363.5t-301 152.5t-314 -135 t-115.5 -363.5z" />
<glyph unicode="c" d="M63 513q0 237 125 400.5t367 163.5q154 0 266.5 -91t130.5 -253h-41q-23 147 -122 225t-234 78q-231 0 -341 -158.5t-110 -368.5t113 -351.5t313 -141.5q160 0 275 94.5t115 247.5h41q-16 -178 -132 -280.5t-299 -102.5q-217 0 -342 150.5t-125 387.5z" />
<glyph unicode="d" horiz-adv-x="1099" d="M57 520q0 237 120 397t329 160q164 0 273.5 -86t148.5 -233l4 704h41v-1462h-41v295q-45 -143 -156.5 -231.5t-269.5 -88.5q-205 0 -327 154t-122 391zM98 519q0 -210 105.5 -356.5t301.5 -146.5t311.5 147.5t115.5 375t-114.5 362.5t-313.5 135t-302.5 -153.5 t-103.5 -363.5z" />
<glyph unicode="e" d="M51 527q0 251 135.5 400.5t325.5 149.5q229 0 345 -160.5t116 -398.5h-881q0 -229 100.5 -365.5t315.5 -136.5q166 0 275.5 90.5t136.5 258.5h41q-20 -178 -144.5 -284t-304.5 -106q-233 0 -347 150.5t-114 401.5zM92 559h840q0 207 -108.5 342t-296 135t-311.5 -131 t-124 -346z" />
<glyph unicode="f" horiz-adv-x="417" d="M-2 1012v41h180v233q0 113 56.5 144.5t150.5 31.5q8 0 88 -8v-41q-51 8 -120.5 8t-101.5 -33.5t-32 -115.5v-219h227v-41h-227v-1012h-41v1012h-180z" />
<glyph unicode="g" horiz-adv-x="1062" d="M57 565q0 219 119 365.5t334 146.5q147 0 258 -86t141 -219l4 281h41v-1018q0 -211 -113.5 -316.5t-307 -105.5t-306 82t-112.5 250h41q0 -147 100 -219t258 -72q399 0 399 381v317q-35 -135 -154.5 -215t-262.5 -80q-209 0 -324 144.5t-115 363.5zM98 560 q0 -204 103.5 -333t295.5 -129t303 132t111 329t-106.5 337t-298 140t-300 -136t-108.5 -340z" />
<glyph unicode="h" d="M113 0v1462h41v-669q35 127 133 205.5t258 78.5t263 -99t103 -280v-698h-41v692q0 170 -95 257t-238 87q-182 0 -282.5 -126t-100.5 -314v-596h-41z" />
<glyph unicode="i" horiz-adv-x="266" d="M113 0v1053h41v-1053h-41zM113 1255v207h41v-207h-41z" />
<glyph unicode="j" horiz-adv-x="266" d="M-100 -322q131 0 172 29t41 154v1192h41v-1207q0 -133 -58.5 -170.5t-195.5 -37.5v40zM113 1255v207h41v-207h-41z" />
<glyph unicode="k" horiz-adv-x="909" d="M113 0v1462h41v-1013l727 604h59l-483 -402l518 -651h-55l-494 623l-272 -226v-397h-41z" />
<glyph unicode="l" horiz-adv-x="266" d="M113 0v1462h41v-1462h-41z" />
<glyph unicode="m" horiz-adv-x="1593" d="M113 0v1053h41v-260q33 123 126 203.5t216 80.5t204.5 -63.5t108.5 -182.5q35 111 126 178.5t212 67.5q180 0 257 -100t77 -285v-692h-41v692q0 170 -64.5 257t-221.5 87t-247 -107.5t-90 -260.5v-668h-41v676q0 170 -60.5 265t-217 95t-250.5 -129t-94 -311v-596h-41z " />
<glyph unicode="n" d="M113 0v1053h41v-260q35 127 133 205.5t258 78.5t263 -99t103 -280v-698h-41v692q0 170 -95 257t-238 87q-182 0 -282.5 -126t-100.5 -314v-596h-41z" />
<glyph unicode="o" horiz-adv-x="1062" d="M57 525q0 230 126 391t348 161t348.5 -160.5t126.5 -390.5q0 -229 -127 -390t-349 -161q-221 0 -347 160t-126 390zM98 526q0 -211 115.5 -360.5t318.5 -149.5t318 148.5t115 359.5t-116 361.5t-318 150.5t-317.5 -149.5t-115.5 -360.5z" />
<glyph unicode="p" horiz-adv-x="1099" d="M113 -362v1415h41v-295q45 143 156.5 231t269.5 88q205 0 326.5 -153.5t121.5 -391t-120 -397.5t-328 -160q-164 0 -273.5 86t-148.5 234l-4 -657h-41zM154 513.5q0 -227.5 114.5 -362.5t313.5 -135t302 153.5t103 363.5t-105.5 356.5t-301 146.5t-311 -147.5 t-115.5 -375z" />
<glyph unicode="q" horiz-adv-x="1099" d="M57 533.5q0 238.5 121 391t328 152.5q158 0 269.5 -87t152.5 -232l4 295h41v-1415h-41v657q-41 -147 -151.5 -233.5t-274.5 -86.5q-209 0 -329 160t-120 398.5zM98 532q0 -211 102.5 -363.5t301.5 -152.5t314.5 135.5t115.5 363.5t-114.5 374.5t-310.5 146.5 t-302.5 -146.5t-106.5 -357.5z" />
<glyph unicode="r" horiz-adv-x="530" d="M113 0v1053h41v-260q35 129 136 206.5t281 77.5v-41q-205 0 -311 -126t-106 -314v-596h-41z" />
<glyph unicode="s" horiz-adv-x="948" d="M61 360h41q0 -344 385 -344q133 0 236.5 61.5t103.5 185.5t-84 168t-227 80t-193.5 51.5t-135.5 52t-85 198.5q0 102 88.5 183t269.5 81t280.5 -82t99.5 -254h-41q0 150 -91.5 222.5t-245 72.5t-236.5 -61.5t-83 -149.5t29 -131t78 -61.5t127 -40t220 -58t206.5 -99 t64.5 -167.5q0 -147 -112.5 -220t-268.5 -73q-213 0 -319.5 93.5t-106.5 291.5z" />
<glyph unicode="t" horiz-adv-x="493" d="M-10 1012v41h194v331h41v-331h238v-41h-238v-807q0 -104 38 -134t107 -30t87 6v-41l-101 -6q-82 0 -127 44t-45 153v815h-194z" />
<glyph unicode="u" d="M113 354v699h41v-693q0 -170 95 -257t238 -87q182 0 282.5 126t100.5 315v596h41v-1053h-41v260q-35 -127 -133 -206t-258 -79t-263 99.5t-103 279.5z" />
<glyph unicode="v" horiz-adv-x="833" d="M-25 1053h50l407 -1012l381 1012h45l-397 -1053h-51z" />
<glyph unicode="w" horiz-adv-x="1402" d="M-16 1053h41l313 -1012l330 1012h63l324 -1012l323 1012h41l-336 -1053h-53l-328 1012l-333 -1012h-58z" />
<glyph unicode="x" horiz-adv-x="833" d="M-31 0l422 545l-383 508h53l355 -478l362 478h49l-385 -508l422 -545h-51l-397 514l-396 -514h-51z" />
<glyph unicode="y" horiz-adv-x="833" d="M-25 1053h45l418 -998l377 998h43l-485 -1268q-37 -96 -99.5 -121.5t-179.5 -25.5v40q117 0 164 23t82 113l76 196z" />
<glyph unicode="z" horiz-adv-x="833" d="M10 0v51l738 961h-682v41h725v-52l-738 -960h770v-41h-813z" />
<glyph unicode="{" horiz-adv-x="681" d="M174 553v41q63 10 105.5 110.5t42.5 231.5v338q0 121 31.5 172t117.5 51h102v-41h-98q-61 0 -87 -47t-26 -172v-336q0 -109 -35.5 -204t-111.5 -128q66 -31 106.5 -125t40.5 -211v-331q0 -133 26 -178.5t87 -45.5h98v-40h-102q-82 0 -115.5 54t-33.5 173v334 q0 137 -30 217t-118 137z" />
<glyph unicode="|" horiz-adv-x="454" d="M207 -35v1532h41v-1532h-41z" />
<glyph unicode="}" horiz-adv-x="681" d="M109 -322h98q61 0 86.5 47.5t25.5 172.5v335q0 109 36 204t112 128q-66 31 -107 125t-41 211v332q0 133 -25.5 178t-86.5 45h-98v41h102q82 0 115.5 -54t33.5 -173v-334q0 -137 30 -217t118 -137v-41q-63 -10 -105.5 -110.5t-42.5 -231.5v-338q0 -121 -31.5 -172 t-117.5 -51h-102v40z" />
<glyph unicode="~" horiz-adv-x="1228" d="M158 432q96 178 241 178q82 0 214 -57t167 -70.5t79 -13.5t85 39t86 108l41 -12q-53 -86 -101 -131t-110.5 -45t-123 27.5t-115 52.5t-104.5 43t-118 18t-112.5 -37.5t-87.5 -111.5z" />
<glyph unicode="&#xa1;" horiz-adv-x="378" d="M170 -362v1099h41v-1099h-41zM170 909v201h41v-201h-41z" />
<glyph unicode="&#xa2;" horiz-adv-x="1138" d="M121 526q0 223 115.5 386t320.5 163v180h41v-180q166 0 278.5 -89t131.5 -253h-41q-23 147 -122.5 224t-246.5 77v-1018h10q150 0 251.5 95.5t117.5 246.5h41q-20 -178 -134 -280.5t-286 -102.5v-223h-41v223q-207 0 -321.5 164t-114.5 387zM162 526q0 -205 102.5 -357.5 t292.5 -152.5v1018q-188 0 -291.5 -151.5t-103.5 -356.5z" />
<glyph unicode="&#xa3;" horiz-adv-x="1138" d="M80 6q106 90 174 198.5t68 223.5q0 168 -66 279h-156v41h136q-45 88 -94.5 189t-49.5 179q0 182 135 281.5t341 99.5t334 -117.5t128 -324.5l-4 -72h-41q2 16 2 33v28q0 199 -116.5 305.5t-305 106.5t-310.5 -84t-122 -256q0 -92 56.5 -197.5t93.5 -170.5h323v-41h-305 q61 -108 61 -279q0 -218 -202 -391l4 -4q98 76 209 76q72 0 178 -41q160 -62 235.5 -62t141 40t157.5 130l27 -29q-86 -98 -166 -140t-155.5 -42t-124 15.5t-131.5 45t-107.5 36t-54.5 6.5q-129 0 -256 -103z" />
<glyph unicode="&#xa4;" horiz-adv-x="1138" d="M61 696q0 197 136 344l-117 117l29 29l116 -117q147 135 345 135t343 -135l117 117l29 -29l-117 -117q135 -145 135 -343t-135 -345l117 -116l-29 -29l-117 117q-147 -135 -344 -136q-197 0 -344 136l-116 -117l-29 29l117 116q-135 147 -136 344zM102 696 q0 -193 137.5 -330t329.5 -137q193 0 330 137.5t137 331t-136 329.5t-330 136t-331 -137t-137 -330z" />
<glyph unicode="&#xa5;" horiz-adv-x="1138" d="M43 1462h45l479 -784l484 784h45l-486 -796h279v-41h-301v-209h301v-41h-301v-375h-41v375h-301v41h301v209h-301v41h282z" />
<glyph unicode="&#xa6;" horiz-adv-x="454" d="M207 -35v590h41v-590h-41zM207 907v590h41v-590h-41z" />
<glyph unicode="&#xa7;" horiz-adv-x="1138" d="M117 717q0 92 66.5 172t156.5 112q-109 95 -109 234.5t103.5 200.5t220.5 61q160 0 255 -103.5t95 -275.5h-41q0 160 -81 249t-232 89q-104 0 -191.5 -55t-87.5 -180q0 -72 31 -117t77 -79t157.5 -98.5t227.5 -139t186.5 -161.5t70.5 -197.5t-79 -187.5t-161 -102 q74 -61 97.5 -118.5t23.5 -133.5q0 -135 -98 -204.5t-253 -69.5t-248 103.5t-93 293.5h41q0 -356 317 -356q143 0 218 74.5t75 159.5t-28.5 136.5t-111.5 111t-220 144.5t-217 139q-168 113 -168 298zM158 700q0 -150 172 -262q92 -59 226 -145t187 -125q80 18 159 86 t79 169t-67 182q-92 113 -422 301q-103 59 -115 67q-72 -23 -145.5 -91.5t-73.5 -181.5z" />
<glyph unicode="&#xa8;" horiz-adv-x="266" d="M-47 1208v166h41v-166h-41zM272 1208v166h41v-166h-41z" />
<glyph unicode="&#xa9;" horiz-adv-x="1638" d="M53 731q0 319 223.5 542.5t542.5 223.5t542.5 -223t223.5 -543q0 -319 -223 -542.5t-543 -223.5q-319 0 -542.5 223.5t-223.5 542.5zM94 731q0 -301 212 -513t513 -212t513 212t212 513t-212 513t-513 212t-513 -212t-212 -513zM391 720q0 206 119 336t326 130 q150 0 254 -82t124 -227h-40q-18 129 -113.5 198.5t-224.5 69.5q-186 0 -295 -119t-109 -305t110.5 -310t299.5 -124q115 0 208 73.5t124 204.5h40q-33 -143 -133 -231t-239 -88q-203 0 -327 134t-124 340z" />
<glyph unicode="&#xaa;" horiz-adv-x="614" d="M0 936q0 182 252 182h49q129 0 166 22.5t37 69.5q0 88 -47 127t-152 39q-199 0 -221 -172h-41q23 213 262.5 213t239.5 -182v-389q0 -43 41 -43q8 0 28 4v-41q-55 0 -82.5 9t-27.5 54v84l-4 -14q-47 -147 -271 -147q-100 0 -164.5 42t-64.5 142zM41 932 q0 -74 54.5 -106.5t133.5 -32.5q127 0 201 67.5t74 171.5v98q-27 -35 -104.5 -41t-162.5 -14t-140.5 -38.5t-55.5 -104.5z" />
<glyph unicode="&#xab;" horiz-adv-x="720" d="M135 532v33l211 285v-72l-170 -229l170 -230v-71zM326 532v33l211 285v-72l-170 -229l170 -230v-71z" />
<glyph unicode="&#xac;" horiz-adv-x="1228" d="M98 696v41h1032v-547h-40v506h-992z" />
<glyph unicode="&#xad;" horiz-adv-x="681" d="M162 528v41h358v-41h-358z" />
<glyph unicode="&#xae;" horiz-adv-x="1638" d="M53 731q0 319 223.5 542.5t542.5 223.5t542.5 -223t223.5 -543q0 -319 -223 -542.5t-543 -223.5q-319 0 -542.5 223.5t-223.5 542.5zM94 731q0 -301 212 -513t513 -212t513 212t212 513t-212 513t-513 212t-513 -212t-212 -513zM561 276v881h289q291 0 291 -237 q0 -106 -65.5 -168t-164.5 -62l271 -414h-52l-264 410l-63 -2h-201v-408h-41zM602 725h213q121 0 203 39t82 153t-71 156.5t-183 42.5h-244v-391z" />
<glyph unicode="&#xb0;" horiz-adv-x="819" d="M117 1121q0 124 84 210t207 86t208.5 -86t85.5 -208t-84.5 -209t-207.5 -87t-208 85t-85 209zM158 1120q0 -105 73.5 -178.5t180.5 -73.5t178.5 74t71.5 180t-71.5 180t-176 74t-180.5 -75.5t-76 -180.5z" />
<glyph unicode="&#xb1;" horiz-adv-x="1228" d="M98 0v41h1032v-41h-1032zM98 590v41h496v405h41v-405h495v-41h-495v-406h-41v406h-496z" />
<glyph unicode="&#xb2;" horiz-adv-x="681" d="M37 567q0 82 47 140.5t225 175t225.5 181t47.5 144.5t-65.5 124t-172.5 44q-250 0 -250 -248h-41q0 143 68.5 216t208.5 73q293 0 293 -213q0 -90 -54.5 -162.5t-219.5 -178t-213 -157t-52 -98.5h563v-41h-610z" />
<glyph unicode="&#xb3;" horiz-adv-x="681" d="M23 850h40q0 -125 76 -190.5t200 -65.5t201.5 54t77.5 154.5t-74.5 146.5t-189.5 46h-49v43h53q104 0 174 41t70 134t-67.5 128t-178.5 35q-266 0 -266 -231h-41q0 131 84 201.5t215 70.5t213 -46t82 -159q0 -84 -59.5 -139t-149.5 -55q96 -4 160.5 -60.5t64.5 -163 t-90 -174t-231.5 -67.5t-228 77t-86.5 220z" />
<glyph unicode="&#xb4;" horiz-adv-x="266" d="M20 1202l271 295h59l-299 -295h-31z" />
<glyph unicode="&#xb5;" horiz-adv-x="1138" d="M170 -362v1415h39v-693q0 -170 95 -257t239 -87q182 0 282.5 126t100.5 315v596h41v-1053h-41v260q-33 -127 -133.5 -206t-229.5 -79q-264 0 -348 191l-4 -528h-41z" />
<glyph unicode="&#xb6;" horiz-adv-x="1228" d="M135 1075q0 176 120 281.5t337 105.5h414v-1749h-41v1708h-334v-1708h-41v959q-199 0 -327 113.5t-128 289.5z" />
<glyph unicode="&#xb8;" horiz-adv-x="266" d="M-51 -340l18 39q97 -33 150 -33q159 0 159 109q0 37 -37.5 59.5t-89 22.5t-96.5 -27l-30 20l116 150h41l-84 -115q59 13 68 13q68 0 110.5 -30t42.5 -104q0 -139 -200 -139q-63 0 -168 35z" />
<glyph unicode="&#xb9;" horiz-adv-x="681" d="M127 1208v39q82 27 130 58.5t110 97.5h45v-836h-41v789q-37 -49 -105.5 -88t-138.5 -60z" />
<glyph unicode="&#xba;" horiz-adv-x="614" d="M0 1087q0 139 82 234.5t226 95.5t226 -96t82 -234.5t-81.5 -236.5t-225 -98t-226.5 98t-83 237zM41 1086q0 -118 72.5 -205.5t194.5 -87.5t194.5 88t72.5 204.5t-72.5 203.5t-194.5 87t-194.5 -86t-72.5 -204z" />
<glyph unicode="&#xbb;" horiz-adv-x="720" d="M184 248v71l170 230l-170 229v72l211 -285v-33zM375 248v71l170 230l-170 229v72l211 -285v-33z" />
<glyph unicode="&#xbc;" horiz-adv-x="1708" d="M209 1208v39q82 27 130 58.5t110 97.5h45v-836h-41v789q-37 -49 -105.5 -88t-138.5 -60zM295 -70l975 1532h47l-975 -1532h-47zM848 209v51l442 576h51v-586h156v-41h-156v-209h-41v209h-452zM891 250h409v526h-4z" />
<glyph unicode="&#xbd;" horiz-adv-x="1708" d="M133 1208v39q82 27 130 58.5t110 97.5h45v-836h-41v789q-37 -49 -105.5 -88t-138.5 -60zM199 -70l975 1532h47l-975 -1532h-47zM967 0q0 82 47 140.5t225 175t225 181t47 144.5t-65.5 124t-171.5 44q-250 0 -250 -248h-41q0 143 68.5 216t208.5 73q292 0 292 -213 q0 -90 -54 -163t-219 -178.5t-213 -156.5t-52 -98h563v-41h-610z" />
<glyph unicode="&#xbe;" horiz-adv-x="1708" d="M113 850h41q0 -125 75.5 -190.5t199.5 -65.5t202 54t78 154.5t-76 147.5t-189 47l-49 -2v43h54q104 0 173.5 41t69.5 134t-67.5 128t-178.5 35q-266 0 -266 -231h-41q0 131 84 201.5t215.5 70.5t213 -46t81.5 -159q0 -84 -59.5 -139t-149.5 -55q96 -4 161 -60.5t65 -163 t-90.5 -174t-232 -67.5t-228 77t-86.5 220zM406 -70l974 1532h47l-974 -1532h-47zM946 209v51l443 576h51v-586h155v-41h-155v-209h-41v209h-453zM989 250h410v526h-4z" />
<glyph unicode="&#xbf;" d="M104 -60.5q0 146.5 54.5 224.5t144.5 155q117 113 160 196t43 222h41q0 -139 -41 -229t-129 -175t-144 -138q-88 -111 -88 -247t100.5 -215t262.5 -79q199 0 301 120t102 326h41q0 -221 -115.5 -354t-328.5 -133q-176 0 -290 90t-114 236.5zM508 909v201h41v-201h-41z " />
<glyph unicode="&#xc0;" horiz-adv-x="1177" d="M-25 0l594 1462h54l577 -1462h-45l-192 481h-746l-194 -481h-48zM233 522h713l-348 899zM379 1862h60l256 -295h-31z" />
<glyph unicode="&#xc1;" horiz-adv-x="1177" d="M-25 0l594 1462h54l577 -1462h-45l-192 481h-746l-194 -481h-48zM233 522h713l-348 899zM477 1567l271 295h59l-299 -295h-31z" />
<glyph unicode="&#xc2;" horiz-adv-x="1177" d="M-25 0l594 1462h54l577 -1462h-45l-192 481h-746l-194 -481h-48zM233 522h713l-348 899zM342 1577l232 285h30l234 -285h-41l-211 252l-203 -252h-41z" />
<glyph unicode="&#xc3;" horiz-adv-x="1177" d="M-25 0l594 1462h54l577 -1462h-45l-192 481h-746l-194 -481h-48zM233 522h713l-348 899zM320 1598q0 57 44 109.5t91 52.5t142.5 -59.5t131 -59.5t63 33.5t27.5 79.5h41q0 -63 -36.5 -108.5t-95 -45.5t-145.5 59.5t-125 59.5t-67.5 -40t-29.5 -81h-41z" />
<glyph unicode="&#xc4;" horiz-adv-x="1177" d="M-25 0l594 1462h54l577 -1462h-45l-192 481h-746l-194 -481h-48zM233 522h713l-348 899zM410 1573v166h41v-166h-41zM729 1573v166h41v-166h-41z" />
<glyph unicode="&#xc5;" horiz-adv-x="1177" d="M-25 0l594 1462h54l577 -1462h-45l-192 481h-746l-194 -481h-48zM233 522h713l-348 899zM410 1687q0 74 53 127.5t127 53.5t127 -53.5t53 -127.5t-53 -127t-127 -53t-127 53.5t-53 126.5zM451 1687q0 -57 41 -98t98 -41t98 41t41 98t-41 98.5t-98 41.5t-98 -41t-41 -99z " />
<glyph unicode="&#xc6;" horiz-adv-x="1744" d="M-25 0l775 1462h960v-41h-803v-639h738v-41h-738v-700h803v-41h-844v561h-549l-297 -561h-45zM338 602h528v823h-96z" />
<glyph unicode="&#xc7;" horiz-adv-x="1402" d="M51 710.5q0 317.5 171 552t517 234.5q264 0 424 -155.5t160 -317.5h-41q-14 170 -163.5 301t-379.5 131q-328 0 -487.5 -230.5t-159.5 -516t168 -494.5t437.5 -209t426 156.5t191.5 410.5h41q-39 -274 -204 -441t-429 -167l-59 -80q58 13 67 13q68 0 111 -30t43 -104 q0 -139 -201 -139q-57 0 -168 35l19 39q97 -33 149 -33q160 0 160 109q0 37 -38 59.5t-89.5 22.5t-95.5 -27l-31 20l90 117q-279 0 -454 213t-175 530.5z" />
<glyph unicode="&#xc8;" horiz-adv-x="1099" d="M111 0v1462h970v-41h-929v-639h874v-41h-874v-700h938v-41h-979zM340 1862h60l256 -295h-31z" />
<glyph unicode="&#xc9;" horiz-adv-x="1099" d="M111 0v1462h970v-41h-929v-639h874v-41h-874v-700h938v-41h-979zM438 1567l271 295h59l-299 -295h-31z" />
<glyph unicode="&#xca;" horiz-adv-x="1099" d="M111 0v1462h970v-41h-929v-639h874v-41h-874v-700h938v-41h-979zM303 1577l232 285h30l234 -285h-41l-211 252l-203 -252h-41z" />
<glyph unicode="&#xcb;" horiz-adv-x="1099" d="M111 0v1462h970v-41h-929v-639h874v-41h-874v-700h938v-41h-979zM371 1573v166h41v-166h-41zM690 1573v166h41v-166h-41z" />
<glyph unicode="&#xcc;" horiz-adv-x="262" d="M-80 1862h60l256 -295h-31zM111 0v1462h41v-1462h-41z" />
<glyph unicode="&#xcd;" horiz-adv-x="262" d="M18 1567l271 295h59l-299 -295h-31zM111 0v1462h41v-1462h-41z" />
<glyph unicode="&#xce;" horiz-adv-x="262" d="M-117 1577l232 285h30l234 -285h-41l-211 252l-203 -252h-41zM111 0v1462h41v-1462h-41z" />
<glyph unicode="&#xcf;" horiz-adv-x="262" d="M-49 1573v166h41v-166h-41zM111 0v1462h41v-1462h-41zM270 1573v166h41v-166h-41z" />
<glyph unicode="&#xd0;" horiz-adv-x="1327" d="M-20 741v41h131v680h512q258 0 440 -169t182 -549t-197.5 -562t-488.5 -182h-448v741h-131zM152 41h417q276 0 455.5 176t179.5 532.5t-169 514t-423 157.5h-460v-639h608v-41h-608v-700z" />
<glyph unicode="&#xd1;" horiz-adv-x="1327" d="M111 0v1462h61l999 -1411l5 1411h41v-1462h-62l-999 1411l-4 -1411h-41zM393 1598q0 57 44 109.5t91 52.5t142.5 -59.5t131 -59.5t63 33.5t27.5 79.5h41q0 -63 -36.5 -108.5t-95 -45.5t-145.5 59.5t-125 59.5t-67.5 -40t-29.5 -81h-41z" />
<glyph unicode="&#xd2;" horiz-adv-x="1476" d="M66 731q0 328 178 547t495 219t495.5 -219t178.5 -547t-178 -547t-496 -219q-317 0 -495 219t-178 547zM106 731q0 -322 171 -523.5t462 -201.5t462 202t171 523q0 322 -171 523.5t-462 201.5t-462 -201.5t-171 -523.5zM528 1862h60l256 -295h-31z" />
<glyph unicode="&#xd3;" horiz-adv-x="1476" d="M66 731q0 328 178 547t495 219t495.5 -219t178.5 -547t-178 -547t-496 -219q-317 0 -495 219t-178 547zM106 731q0 -322 171 -523.5t462 -201.5t462 202t171 523q0 322 -171 523.5t-462 201.5t-462 -201.5t-171 -523.5zM626 1567l271 295h59l-299 -295h-31z" />
<glyph unicode="&#xd4;" horiz-adv-x="1476" d="M66 731q0 328 178 547t495 219t495.5 -219t178.5 -547t-178 -547t-496 -219q-317 0 -495 219t-178 547zM106 731q0 -322 171 -523.5t462 -201.5t462 202t171 523q0 322 -171 523.5t-462 201.5t-462 -201.5t-171 -523.5zM491 1577l232 285h30l234 -285h-41l-211 252 l-203 -252h-41z" />
<glyph unicode="&#xd5;" horiz-adv-x="1476" d="M66 731q0 328 178 547t495 219t495.5 -219t178.5 -547t-178 -547t-496 -219q-317 0 -495 219t-178 547zM106 731q0 -322 171 -523.5t462 -201.5t462 202t171 523q0 322 -171 523.5t-462 201.5t-462 -201.5t-171 -523.5zM469 1598q0 57 44 109.5t91 52.5t142.5 -59.5 t131 -59.5t63 33.5t27.5 79.5h41q0 -63 -36.5 -108.5t-95 -45.5t-145.5 59.5t-125 59.5t-67.5 -40t-29.5 -81h-41z" />
<glyph unicode="&#xd6;" horiz-adv-x="1476" d="M66 731q0 328 178 547t495 219t495.5 -219t178.5 -547t-178 -547t-496 -219q-317 0 -495 219t-178 547zM106 731q0 -322 171 -523.5t462 -201.5t462 202t171 523q0 322 -171 523.5t-462 201.5t-462 -201.5t-171 -523.5zM559 1573v166h41v-166h-41zM878 1573v166h41v-166 h-41z" />
<glyph unicode="&#xd7;" horiz-adv-x="1228" d="M197 129l389 389l-389 389l28 27l387 -391l392 391l28 -27l-391 -389l391 -389l-28 -29l-392 392l-387 -392z" />
<glyph unicode="&#xd8;" horiz-adv-x="1476" d="M66 731q0 328 178 547t485.5 219t489.5 -203l120 133l31 -24l-125 -139q168 -209 168 -535t-178 -545t-488.5 -219t-488.5 207l-145 -162l-31 25l149 166q-80 100 -122.5 238.5t-42.5 291.5zM106 731q0 -301 154 -498l930 1031q-171 192 -456.5 192t-456.5 -201.5 t-171 -523.5zM287 203q168 -197 455.5 -197t458.5 202t171 515t-155 508z" />
<glyph unicode="&#xd9;" horiz-adv-x="1294" d="M111 545v917h41v-917q0 -539 495 -539q496 0 496 539v917h41v-917q0 -287 -138.5 -433.5t-398.5 -146.5q-537 0 -536 580zM436 1862h60l256 -295h-31z" />
<glyph unicode="&#xda;" horiz-adv-x="1294" d="M111 545v917h41v-917q0 -539 495 -539q496 0 496 539v917h41v-917q0 -287 -138.5 -433.5t-398.5 -146.5q-537 0 -536 580zM534 1567l271 295h59l-299 -295h-31z" />
<glyph unicode="&#xdb;" horiz-adv-x="1294" d="M111 545v917h41v-917q0 -539 495 -539q496 0 496 539v917h41v-917q0 -287 -138.5 -433.5t-398.5 -146.5q-537 0 -536 580zM399 1577l232 285h30l234 -285h-41l-211 252l-203 -252h-41z" />
<glyph unicode="&#xdc;" horiz-adv-x="1294" d="M111 545v917h41v-917q0 -539 495 -539q496 0 496 539v917h41v-917q0 -287 -138.5 -433.5t-398.5 -146.5q-537 0 -536 580zM467 1573v166h41v-166h-41zM786 1573v166h41v-166h-41z" />
<glyph unicode="&#xdd;" horiz-adv-x="1101" d="M-61 1462h51l561 -803l563 803h49l-592 -846v-616h-41v616zM438 1612l271 295h59l-299 -295h-31z" />
<glyph unicode="&#xde;" horiz-adv-x="1175" d="M111 0v1462h41v-254h550q211 0 328 -102t117 -293.5t-128 -296t-337 -104.5h-530v-412h-41zM152 453h550q176 0 290 95t114 261q0 358 -404 358h-550v-714z" />
<glyph unicode="&#xdf;" horiz-adv-x="985" d="M113 0v1139q0 180 104.5 264t258 84t264 -91t110.5 -234.5t-65.5 -232.5t-194.5 -110q170 -18 253 -119.5t83 -269.5q0 -209 -118 -319.5t-394 -110.5v41q231 0 351 84t120 299t-121 292t-350 77v41q178 0 286.5 72.5t108.5 226t-95.5 233.5t-229.5 80t-232 -63.5 t-98 -249.5v-1133h-41z" />
<glyph unicode="&#xe0;" horiz-adv-x="985" d="M45 260q0 176 102.5 245.5t260.5 69.5q240 0 325.5 29t85.5 149.5t-59.5 201.5t-236.5 81t-274 -81t-97 -228h-41q0 156 105.5 253t278.5 97t269 -69.5t96 -231.5v-670q0 -69 84 -69h25q16 4 24 4v-41h-30q-88 0 -116 25.5t-28 76.5v138q-37 -109 -151.5 -187t-272.5 -78 t-254 74t-96 211zM86 260q0 -102 73.5 -173t252 -71t293 121t114.5 287v194q-31 -41 -116 -62t-263.5 -21t-266 -58.5t-87.5 -216.5zM282 1452h60l256 -295h-31z" />
<glyph unicode="&#xe1;" horiz-adv-x="985" d="M45 260q0 176 102.5 245.5t260.5 69.5q240 0 325.5 29t85.5 149.5t-59.5 201.5t-236.5 81t-274 -81t-97 -228h-41q0 156 105.5 253t278.5 97t269 -69.5t96 -231.5v-670q0 -69 84 -69h25q16 4 24 4v-41h-30q-88 0 -116 25.5t-28 76.5v138q-37 -109 -151.5 -187t-272.5 -78 t-254 74t-96 211zM86 260q0 -102 73.5 -173t252 -71t293 121t114.5 287v194q-31 -41 -116 -62t-263.5 -21t-266 -58.5t-87.5 -216.5zM380 1157l271 295h59l-299 -295h-31z" />
<glyph unicode="&#xe2;" horiz-adv-x="985" d="M45 260q0 176 102.5 245.5t260.5 69.5q240 0 325.5 29t85.5 149.5t-59.5 201.5t-236.5 81t-274 -81t-97 -228h-41q0 156 105.5 253t278.5 97t269 -69.5t96 -231.5v-670q0 -69 84 -69h25q16 4 24 4v-41h-30q-88 0 -116 25.5t-28 76.5v138q-37 -109 -151.5 -187t-272.5 -78 t-254 74t-96 211zM86 260q0 -102 73.5 -173t252 -71t293 121t114.5 287v194q-31 -41 -116 -62t-263.5 -21t-266 -58.5t-87.5 -216.5zM245 1167l232 285h30l234 -285h-41l-211 252l-203 -252h-41z" />
<glyph unicode="&#xe3;" horiz-adv-x="985" d="M45 260q0 176 102.5 245.5t260.5 69.5q240 0 325.5 29t85.5 149.5t-59.5 201.5t-236.5 81t-274 -81t-97 -228h-41q0 156 105.5 253t278.5 97t269 -69.5t96 -231.5v-670q0 -69 84 -69h25q16 4 24 4v-41h-30q-88 0 -116 25.5t-28 76.5v138q-37 -109 -151.5 -187t-272.5 -78 t-254 74t-96 211zM86 260q0 -102 73.5 -173t252 -71t293 121t114.5 287v194q-31 -41 -116 -62t-263.5 -21t-266 -58.5t-87.5 -216.5zM223 1188q0 57 44 109.5t91 52.5t142.5 -59.5t131 -59.5t63 33.5t27.5 79.5h41q0 -63 -36.5 -108.5t-95 -45.5t-145.5 59.5t-125 59.5 t-67.5 -40t-29.5 -81h-41z" />
<glyph unicode="&#xe4;" horiz-adv-x="985" d="M45 260q0 176 102.5 245.5t260.5 69.5q240 0 325.5 29t85.5 149.5t-59.5 201.5t-236.5 81t-274 -81t-97 -228h-41q0 156 105.5 253t278.5 97t269 -69.5t96 -231.5v-670q0 -69 84 -69h25q16 4 24 4v-41h-30q-88 0 -116 25.5t-28 76.5v138q-37 -109 -151.5 -187t-272.5 -78 t-254 74t-96 211zM86 260q0 -102 73.5 -173t252 -71t293 121t114.5 287v194q-31 -41 -116 -62t-263.5 -21t-266 -58.5t-87.5 -216.5zM313 1163v166h41v-166h-41zM632 1163v166h41v-166h-41z" />
<glyph unicode="&#xe5;" horiz-adv-x="985" d="M45 260q0 176 102.5 245.5t260.5 69.5q240 0 325.5 29t85.5 149.5t-59.5 201.5t-236.5 81t-274 -81t-97 -228h-41q0 156 105.5 253t278.5 97t269 -69.5t96 -231.5v-670q0 -69 84 -69h25q16 4 24 4v-41h-30q-88 0 -116 25.5t-28 76.5v138q-37 -109 -151.5 -187t-272.5 -78 t-254 74t-96 211zM86 260q0 -102 73.5 -173t252 -71t293 121t114.5 287v194q-31 -41 -116 -62t-263.5 -21t-266 -58.5t-87.5 -216.5zM313 1380q0 74 53 127.5t127 53.5t127 -53.5t53 -127.5t-53 -127t-127 -53t-127 53.5t-53 126.5zM354 1380q0 -57 41 -98t98 -41t98 41 t41 98t-41 98.5t-98 41.5t-98 -41t-41 -99z" />
<glyph unicode="&#xe6;" horiz-adv-x="1820" d="M66 260q0 176 102 245.5t260 69.5q240 0 326 29t86 149.5t-59.5 201.5t-237 81t-274.5 -81t-97 -228h-41q0 156 105.5 253t279.5 97t269.5 -70.5t95.5 -236.5q47 137 156.5 222t267.5 85q225 0 337.5 -158.5t112.5 -400.5h-874q0 -225 103 -363.5t316 -138.5 q162 0 275 91.5t133 257.5h41q-16 -174 -139 -282t-301.5 -108t-289 88.5t-153.5 253.5q-33 -158 -156.5 -250t-287.5 -92t-260 74t-96 211zM106 260q0 -102 74 -173t252.5 -71t293 121t114.5 287v194q-31 -41 -116 -62t-264 -21t-266.5 -58.5t-87.5 -216.5zM881 559h833 q0 207 -105.5 342t-302 135t-311 -129t-114.5 -348z" />
<glyph unicode="&#xe7;" d="M63 517.5q0 232.5 125 396t367 163.5q154 0 266.5 -91t130.5 -253h-41q-23 147 -122 225t-234 78q-231 0 -341 -158.5t-110 -368.5t113 -351.5t313 -141.5q160 0 275 94.5t115 247.5h41q-16 -174 -130 -277.5t-288 -103.5l-68 -92q59 13 68 13q68 0 110.5 -30t42.5 -104 q0 -139 -200 -139q-63 0 -168 35l18 39q97 -33 150 -33q159 0 159 109q0 37 -37.5 59.5t-89 22.5t-96.5 -27l-31 20l101 130q-201 0 -320 152.5t-119 385z" />
<glyph unicode="&#xe8;" d="M51 527q0 251 135.5 400.5t325.5 149.5q229 0 345 -160.5t116 -398.5h-881q0 -229 100.5 -365.5t315.5 -136.5q166 0 275.5 90.5t136.5 258.5h41q-20 -178 -144.5 -284t-304.5 -106q-233 0 -347 150.5t-114 401.5zM92 559h840q0 207 -108.5 342t-296 135t-311.5 -131 t-124 -346zM301 1452h60l256 -295h-31z" />
<glyph unicode="&#xe9;" d="M51 527q0 251 135.5 400.5t325.5 149.5q229 0 345 -160.5t116 -398.5h-881q0 -229 100.5 -365.5t315.5 -136.5q166 0 275.5 90.5t136.5 258.5h41q-20 -178 -144.5 -284t-304.5 -106q-233 0 -347 150.5t-114 401.5zM92 559h840q0 207 -108.5 342t-296 135t-311.5 -131 t-124 -346zM399 1157l271 295h59l-299 -295h-31z" />
<glyph unicode="&#xea;" d="M51 527q0 251 135.5 400.5t325.5 149.5q229 0 345 -160.5t116 -398.5h-881q0 -229 100.5 -365.5t315.5 -136.5q166 0 275.5 90.5t136.5 258.5h41q-20 -178 -144.5 -284t-304.5 -106q-233 0 -347 150.5t-114 401.5zM92 559h840q0 207 -108.5 342t-296 135t-311.5 -131 t-124 -346zM264 1167l232 285h30l234 -285h-41l-211 252l-203 -252h-41z" />
<glyph unicode="&#xeb;" d="M51 527q0 251 135.5 400.5t325.5 149.5q229 0 345 -160.5t116 -398.5h-881q0 -229 100.5 -365.5t315.5 -136.5q166 0 275.5 90.5t136.5 258.5h41q-20 -178 -144.5 -284t-304.5 -106q-233 0 -347 150.5t-114 401.5zM92 559h840q0 207 -108.5 342t-296 135t-311.5 -131 t-124 -346zM332 1163v166h41v-166h-41zM651 1163v166h41v-166h-41z" />
<glyph unicode="&#xec;" horiz-adv-x="266" d="M-78 1452h60l256 -295h-31zM113 0v1053h41v-1053h-41z" />
<glyph unicode="&#xed;" horiz-adv-x="266" d="M20 1157l271 295h59l-299 -295h-31zM113 0v1053h41v-1053h-41z" />
<glyph unicode="&#xee;" horiz-adv-x="266" d="M-115 1167l232 285h30l234 -285h-41l-211 252l-203 -252h-41zM113 0v1053h41v-1053h-41z" />
<glyph unicode="&#xef;" horiz-adv-x="266" d="M-47 1163v166h41v-166h-41zM113 0v1053h41v-1053h-41zM272 1163v166h41v-166h-41z" />
<glyph unicode="&#xf1;" d="M113 0v1053h41v-260q35 127 133 205.5t258 78.5t263 -99t103 -280v-698h-41v692q0 170 -95 257t-238 87q-182 0 -282.5 -126t-100.5 -314v-596h-41zM242 1188q0 57 44 109.5t91 52.5t142.5 -59.5t131 -59.5t63 33.5t27.5 79.5h41q0 -63 -36.5 -108.5t-95 -45.5 t-145.5 59.5t-125 59.5t-67.5 -40t-29.5 -81h-41z" />
<glyph unicode="&#xf2;" horiz-adv-x="1062" d="M57 525q0 230 126 391t348 161t348.5 -160.5t126.5 -390.5q0 -229 -127 -390t-349 -161q-221 0 -347 160t-126 390zM98 526q0 -211 115.5 -360.5t318.5 -149.5t318 148.5t115 359.5t-116 361.5t-318 150.5t-317.5 -149.5t-115.5 -360.5zM321 1452h60l256 -295h-31z" />
<glyph unicode="&#xf3;" horiz-adv-x="1062" d="M57 525q0 230 126 391t348 161t348.5 -160.5t126.5 -390.5q0 -229 -127 -390t-349 -161q-221 0 -347 160t-126 390zM98 526q0 -211 115.5 -360.5t318.5 -149.5t318 148.5t115 359.5t-116 361.5t-318 150.5t-317.5 -149.5t-115.5 -360.5zM419 1157l271 295h59l-299 -295 h-31z" />
<glyph unicode="&#xf4;" horiz-adv-x="1062" d="M57 525q0 230 126 391t348 161t348.5 -160.5t126.5 -390.5q0 -229 -127 -390t-349 -161q-221 0 -347 160t-126 390zM98 526q0 -211 115.5 -360.5t318.5 -149.5t318 148.5t115 359.5t-116 361.5t-318 150.5t-317.5 -149.5t-115.5 -360.5zM284 1167l232 285h30l234 -285 h-41l-211 252l-203 -252h-41z" />
<glyph unicode="&#xf5;" horiz-adv-x="1062" d="M57 525q0 230 126 391t348 161t348.5 -160.5t126.5 -390.5q0 -229 -127 -390t-349 -161q-221 0 -347 160t-126 390zM98 526q0 -211 115.5 -360.5t318.5 -149.5t318 148.5t115 359.5t-116 361.5t-318 150.5t-317.5 -149.5t-115.5 -360.5zM262 1188q0 57 44 109.5t91 52.5 t142.5 -59.5t131 -59.5t63 33.5t27.5 79.5h41q0 -63 -36.5 -108.5t-95 -45.5t-145.5 59.5t-125 59.5t-67.5 -40t-29.5 -81h-41z" />
<glyph unicode="&#xf6;" horiz-adv-x="1062" d="M57 525q0 230 126 391t348 161t348.5 -160.5t126.5 -390.5q0 -229 -127 -390t-349 -161q-221 0 -347 160t-126 390zM98 526q0 -211 115.5 -360.5t318.5 -149.5t318 148.5t115 359.5t-116 361.5t-318 150.5t-317.5 -149.5t-115.5 -360.5zM352 1163v166h41v-166h-41z M671 1163v166h41v-166h-41z" />
<glyph unicode="&#xf7;" horiz-adv-x="1228" d="M98 498v41h1032v-41h-1032zM530 83q0 36 25 60.5t59 24.5q35 0 59.5 -24.5t24.5 -59.5q0 -84 -84 -84q-41 0 -62.5 23.5t-21.5 59.5zM530 951q0 36 25 60.5t59 24.5q35 0 59.5 -24.5t24.5 -59.5q0 -84 -84 -84q-41 0 -62.5 23.5t-21.5 59.5z" />
<glyph unicode="&#xf8;" horiz-adv-x="1062" d="M37 45l123 127q-103 147 -103 365t126 379t344.5 161t346.5 -157l93 96l28 -29l-96 -100q106 -147 106.5 -368.5t-126.5 -382.5t-345.5 -161t-351.5 162l-116 -121zM98 538.5q0 -198.5 90 -335.5l656 686q-111 147 -313 147t-317.5 -149.5t-115.5 -348zM213 170 q114 -154 318 -154t319 148.5t115 361.5q0 186 -97 330z" />
<glyph unicode="&#xf9;" d="M113 354v699h41v-693q0 -170 95 -257t238 -87q182 0 282.5 126t100.5 315v596h41v-1053h-41v260q-35 -127 -133 -206t-258 -79t-263 99.5t-103 279.5zM301 1452h60l256 -295h-31z" />
<glyph unicode="&#xfa;" d="M113 354v699h41v-693q0 -170 95 -257t238 -87q182 0 282.5 126t100.5 315v596h41v-1053h-41v260q-35 -127 -133 -206t-258 -79t-263 99.5t-103 279.5zM399 1157l271 295h59l-299 -295h-31z" />
<glyph unicode="&#xfb;" d="M113 354v699h41v-693q0 -170 95 -257t238 -87q182 0 282.5 126t100.5 315v596h41v-1053h-41v260q-35 -127 -133 -206t-258 -79t-263 99.5t-103 279.5zM264 1167l232 285h30l234 -285h-41l-211 252l-203 -252h-41z" />
<glyph unicode="&#xfc;" d="M113 354v699h41v-693q0 -170 95 -257t238 -87q182 0 282.5 126t100.5 315v596h41v-1053h-41v260q-35 -127 -133 -206t-258 -79t-263 99.5t-103 279.5zM332 1163v166h41v-166h-41zM651 1163v166h41v-166h-41z" />
<glyph unicode="&#xfd;" horiz-adv-x="833" d="M-25 1053h45l418 -998l377 998h43l-485 -1268q-37 -96 -99.5 -121.5t-179.5 -25.5v40q117 0 164 23t82 113l76 196zM305 1202l271 295h59l-299 -295h-31z" />
<glyph unicode="&#xfe;" horiz-adv-x="1099" d="M113 -362v1824h41v-704q45 147 151.5 233t274.5 86q213 0 330.5 -151.5t117.5 -393.5t-112.5 -399.5t-335.5 -157.5q-158 0 -271.5 87.5t-150.5 232.5l-4 -657h-41zM154 515.5q0 -229.5 116.5 -364.5t319.5 -135t300 149.5t97 366.5t-101 360.5t-306 143.5t-315.5 -145.5 t-110.5 -375z" />
<glyph unicode="&#xff;" horiz-adv-x="833" d="M-25 1053h45l418 -998l377 998h43l-485 -1268q-37 -96 -99.5 -121.5t-179.5 -25.5v40q117 0 164 23t82 113l76 196zM238 1208v166h41v-166h-41zM557 1208v166h41v-166h-41z" />
<glyph unicode="&#x152;" horiz-adv-x="2086" d="M66 724q0 325 177 549t498 224q129 0 225.5 -38t176.5 -130v133h889v-41h-848v-639h749v-41h-749v-700h848v-41h-889v133q-164 -168 -402 -168q-319 0 -497 217t-178 542zM106 731.5q0 -325.5 171.5 -525.5t463.5 -200q243 0 402 187v1083q-92 96 -183.5 138t-218.5 42 q-291 0 -463 -199.5t-172 -525z" />
<glyph unicode="&#x153;" horiz-adv-x="1822" d="M66 526q0 229 105 390t327 161q166 0 275.5 -99t131.5 -261q33 164 135.5 262t282.5 98q213 0 321.5 -151.5t108.5 -376.5v-31h-823q0 -502 393 -502q168 0 258 93.5t117 244.5h41q-29 -176 -134.5 -277.5t-280.5 -101.5t-281.5 90.5t-131.5 256.5q-39 -164 -141 -255.5 t-272 -91.5q-217 0 -324.5 161t-107.5 390zM106 526q0 -215 96.5 -362.5t300.5 -147.5t295 142.5t91 365.5t-93 367.5t-295 144.5t-298.5 -147.5t-96.5 -362.5zM930 559h782q0 213 -94 345t-294 132t-297 -130t-97 -347z" />
<glyph unicode="&#x178;" horiz-adv-x="1101" d="M-61 1462h51l561 -803l563 803h49l-592 -846v-616h-41v616zM371 1573v166h41v-166h-41zM690 1573v166h41v-166h-41z" />
<glyph unicode="&#x2000;" horiz-adv-x="953" />
<glyph unicode="&#x2001;" horiz-adv-x="1907" />
<glyph unicode="&#x2002;" horiz-adv-x="953" />
<glyph unicode="&#x2003;" horiz-adv-x="1907" />
<glyph unicode="&#x2004;" horiz-adv-x="635" />
<glyph unicode="&#x2005;" horiz-adv-x="476" />
<glyph unicode="&#x2006;" horiz-adv-x="317" />
<glyph unicode="&#x2007;" horiz-adv-x="317" />
<glyph unicode="&#x2008;" horiz-adv-x="238" />
<glyph unicode="&#x2009;" horiz-adv-x="381" />
<glyph unicode="&#x200a;" horiz-adv-x="105" />
<glyph unicode="&#x2010;" horiz-adv-x="681" d="M162 528v41h358v-41h-358z" />
<glyph unicode="&#x2011;" horiz-adv-x="681" d="M162 528v41h358v-41h-358z" />
<glyph unicode="&#x2012;" horiz-adv-x="681" d="M162 528v41h358v-41h-358z" />
<glyph unicode="&#x2013;" d="M0 528v41h1024v-41h-1024z" />
<glyph unicode="&#x2014;" horiz-adv-x="2048" d="M0 528v41h2048v-41h-2048z" />
<glyph unicode="&#x2018;" horiz-adv-x="342" d="M150 1001v242q0 109 17 149t75 70v-41q-51 -33 -52 -178v-242h-40z" />
<glyph unicode="&#x2019;" horiz-adv-x="342" d="M100 1001v41q51 33 52 179v241h41v-241q0 -109 -17.5 -149t-75.5 -71z" />
<glyph unicode="&#x201a;" horiz-adv-x="342" d="M98 -203q51 49 52 203v201h40v-201q0 -98 -19 -153.5t-73 -90.5v41z" />
<glyph unicode="&#x201c;" horiz-adv-x="569" d="M170 1001v242q0 109 17.5 149t74.5 70v-41q-51 -33 -51 -178v-242h-41zM375 1001v242q0 109 17.5 149t74.5 70v-41q-51 -33 -51 -178v-242h-41z" />
<glyph unicode="&#x201d;" horiz-adv-x="569" d="M102 1001v41q51 33 52 179v241h41v-241q0 -109 -17.5 -149t-75.5 -71zM307 1001v41q51 33 51 179v241h41v-241q0 -109 -17 -149t-75 -71z" />
<glyph unicode="&#x201e;" horiz-adv-x="569" d="M102 -203q51 49 52 203v201h41v-201q0 -98 -19.5 -153.5t-73.5 -90.5v41zM307 -203q51 49 51 203v201h41v-201q0 -98 -19.5 -153.5t-72.5 -90.5v41z" />
<glyph unicode="&#x2022;" d="M147 730.5q0 152.5 106.5 259t258.5 106.5t259.5 -105.5t107.5 -259.5t-106.5 -260t-259.5 -106t-259.5 106.5t-106.5 259z" />
<glyph unicode="&#x2026;" horiz-adv-x="2048" d="M322 0v201h40v-201h-40zM1004 0v201h40v-201h-40zM1686 0v201h40v-201h-40z" />
<glyph unicode="&#x202f;" horiz-adv-x="381" />
<glyph unicode="&#x2039;" horiz-adv-x="530" d="M135 532v33l211 285v-72l-170 -229l170 -230v-71z" />
<glyph unicode="&#x203a;" horiz-adv-x="530" d="M184 248v71l170 230l-170 229v72l211 -285v-33z" />
<glyph unicode="&#x205f;" horiz-adv-x="476" />
<glyph unicode="&#x2122;" horiz-adv-x="2027" d="M168 1421v41h655v-41h-307v-803h-41v803h-307zM1016 618v844h69l332 -786l332 786h70v-844h-41v803l-340 -803h-41l-336 803l-4 -803h-41z" />
<glyph unicode="&#xe000;" horiz-adv-x="1054" d="M0 0v1055h1055v-1055h-1055z" />
</font>
</defs>
</svg>
