<?xml version="1.0" standalone="no"?>
<!DOCTYPE svg PUBLIC "-//W3C//DTD SVG 1.1//EN" "http://www.w3.org/Graphics/SVG/1.1/DTD/svg11.dtd" >
<svg xmlns="http://www.w3.org/2000/svg">
<metadata></metadata>
<defs>
<font id="HelveticaNeueItalic" horiz-adv-x="1138" >
<font-face units-per-em="2048" ascent="1638" descent="-410" />
<missing-glyph horiz-adv-x="569" />
<glyph horiz-adv-x="0" />
<glyph horiz-adv-x="2048" />
<glyph unicode="&#xd;" horiz-adv-x="569" />
<glyph unicode=" "  horiz-adv-x="569" />
<glyph unicode="&#x09;" horiz-adv-x="569" />
<glyph unicode="&#xa0;" horiz-adv-x="569" />
<glyph unicode="!" horiz-adv-x="569" d="M47 0l47 217h174l-49 -217h-172zM172 365l109 643l98 454h137l-98 -456l-168 -641h-78z" />
<glyph unicode="&#x22;" horiz-adv-x="757" d="M281 965v497h118v-497h-118zM537 965v497h118v-497h-118z" />
<glyph unicode="#" d="M72 457l20 92h217l45 319h-225l21 93h217l63 454h102l-63 -454h289l63 454h103l-64 -454h215l-20 -93h-207l-45 -319h215l-21 -92h-206l-64 -457h-102l63 457h-289l-63 -457h-103l64 457h-225zM412 549h288l45 319h-288z" />
<glyph unicode="$" d="M-47 481h139q0 -174 76 -266t225 -115l129 607l-98 28q-289 82 -289 340q0 217 160 317.5t393 100.5l23 106h92l-25 -114q396 -53 396 -449h-140q0 158 -69.5 235t-210.5 95l-119 -561l41 -12q197 -59 295 -133t98 -236t-127 -308.5t-438 -146.5l-47 2l-37 -176h-92 l41 187q-197 29 -306.5 153.5t-109.5 345.5zM274 1081q0 -82 48.5 -139t197.5 -102l29 -9l115 543q-162 0 -276 -70.5t-114 -222.5zM483 90l31 -2q162 0 289 80t127 220t-83 194.5t-239 97.5z" />
<glyph unicode="%" horiz-adv-x="1705" d="M137 958q0 193 99.5 340.5t281.5 147.5q125 0 200 -79t75 -206q0 -195 -97.5 -343t-281.5 -148q-131 0 -204 78.5t-73 209.5zM213 -66l1167 1547h113l-1169 -1547h-111zM246 954q0 -80 44 -136t126 -56q133 0 200.5 124t67.5 269q0 90 -42 144.5t-130 54.5 q-127 0 -196.5 -130t-69.5 -270zM913 258q0 193 99.5 340t281.5 147q125 0 200 -78.5t75 -205.5q0 -195 -97.5 -343.5t-281.5 -148.5q-131 0 -204 79t-73 210zM1020 254q0 -80 44 -136.5t126 -56.5q133 0 200.5 124.5t67.5 269.5q0 90 -42 144t-130 54q-127 0 -196.5 -130 t-69.5 -269z" />
<glyph unicode="&#x26;" horiz-adv-x="1251" d="M35 340q0 174 110.5 272.5t319.5 196.5q-72 106 -105.5 178t-33.5 162q0 139 101 226t241.5 87t235.5 -70.5t95 -203.5t-97 -224.5t-275 -189.5l262 -407q75 95 112 278h129q-50 -223 -174 -383l170 -262h-145l-111 172q-166 -203 -424 -203q-184 0 -297.5 98.5 t-113.5 272.5zM164 351.5q0 -121.5 80 -197.5t192 -76q219 0 375 188l-289 453q-170 -82 -264 -164t-94 -203.5zM455 1159.5q0 -77.5 26.5 -134t87.5 -165.5q141 78 221 144.5t80 160.5t-54 141.5t-143 47.5t-153.5 -58.5t-64.5 -136z" />
<glyph unicode="'" horiz-adv-x="569" d="M313 965v497h119v-497h-119z" />
<glyph unicode="(" horiz-adv-x="530" d="M100 385q0 305 135.5 583.5t364.5 524.5h107q-248 -303 -368 -604t-120 -682q0 -253 100 -598h-88q-131 361 -131 776z" />
<glyph unicode=")" horiz-adv-x="530" d="M-209 -391q248 303 368 604t120 682q0 250 -101 598h88q131 -361 131 -776q0 -305 -135 -583.5t-364 -524.5h-107z" />
<glyph unicode="*" horiz-adv-x="720" d="M147 1262l43 71l209 -116l54 245h79l-51 -254l238 49l10 -77l-235 -52l122 -208l-77 -39l-121 217l-176 -189l-58 56l170 184z" />
<glyph unicode="+" horiz-adv-x="1228" d="M100 461v108h461v461h109v-461h460v-108h-460v-461h-109v461h-461z" />
<glyph unicode="," horiz-adv-x="569" d="M-25 -281l17 82q66 20 92.5 65.5t48.5 133.5h-86l49 217h172l-67 -287q-23 -96 -72 -140t-154 -71z" />
<glyph unicode="-" horiz-adv-x="757" d="M78 504l24 119h514l-24 -119h-514z" />
<glyph unicode="." horiz-adv-x="569" d="M47 0l47 217h174l-49 -217h-172z" />
<glyph unicode="/" horiz-adv-x="681" d="M-162 -31l842 1524h121l-842 -1524h-121z" />
<glyph unicode="0" d="M51 500q0 332 164 639t467 307q215 0 310 -138.5t95 -363.5q0 -352 -162.5 -663.5t-482.5 -311.5q-213 0 -302 150t-89 381zM180 459q0 -170 66.5 -275.5t226.5 -105.5q238 0 361.5 299t123.5 581q0 168 -64 273.5t-226 105.5q-231 0 -359.5 -302t-128.5 -576z" />
<glyph unicode="1" d="M274 1075l27 103q327 49 455 256h98l-307 -1434h-129l254 1190q-86 -45 -175 -68.5t-223 -46.5z" />
<glyph unicode="2" d="M-23 0q0 141 70 248.5t165 176.5t264 162t253 148.5t148.5 142.5t64.5 206.5t-85 186t-210 66.5q-162 0 -258 -109.5t-96 -273.5h-129q0 213 141 352.5t336.5 139.5t312.5 -97.5t117 -271.5t-107.5 -288.5t-342 -246.5t-339 -208t-155.5 -215h801l-23 -119h-928z" />
<glyph unicode="3" d="M18 455h129q0 -377 316 -377q162 0 274.5 100.5t112.5 246.5t-90 209.5t-230 63.5h-69l22 109h84q162 0 266.5 59.5t104.5 220.5q0 119 -81 184.5t-216.5 65.5t-225 -89t-114.5 -251h-129q39 215 160 332t332 117q170 0 286.5 -93t116.5 -261q0 -133 -84 -227.5 t-217 -116.5q102 -29 157.5 -111t55.5 -195q0 -217 -149.5 -345t-374 -128t-331 128t-106.5 358z" />
<glyph unicode="4" d="M-2 356l22 121l879 957h115l-209 -969h217l-25 -109h-215l-77 -356h-130l78 356h-655zM147 465h529l162 743l-4 4z" />
<glyph unicode="5" d="M31 406h129q-2 -14 -2 -44q0 -133 82 -208.5t241.5 -75.5t273 126t113.5 291t-79.5 256t-233.5 91q-222 0 -317 -166l-115 10l235 729h732l-29 -119h-627l-153 -458q116 112 308.5 112t300 -118.5t107.5 -303.5q0 -246 -150.5 -402.5t-395.5 -156.5q-199 0 -309.5 117 t-110.5 320z" />
<glyph unicode="6" d="M74 453q0 357 148 649q79 155 202 249.5t304 94.5t285.5 -94.5t104.5 -280.5h-129q0 266 -276 266q-141 0 -236.5 -93t-151 -227t-94.5 -286q59 96 161 149.5t220 53.5q186 0 298 -123t112 -311q0 -233 -144.5 -382t-365.5 -149t-329.5 133.5t-108.5 350.5zM203 424.5 q0 -153.5 84 -250t244.5 -96.5t261 128t100.5 310q0 139 -91.5 224t-243 85t-253.5 -123.5t-102 -277z" />
<glyph unicode="7" d="M207 0q57 193 133 351.5t182 329.5q214 343 484 615h-781l29 119h915l-26 -110q-428 -422 -673 -985q-75 -173 -120 -320h-143z" />
<glyph unicode="8" d="M37 360.5q0 184.5 106.5 292t272.5 125.5q-94 33 -149.5 113t-55.5 178q0 172 126 274.5t306 102.5t303 -85t123 -261q0 -133 -85 -228.5t-218 -115.5v-2q115 -33 176.5 -124t61.5 -216q0 -201 -153.5 -323t-355.5 -122t-330 103.5t-128 288zM166 378q0 -148 94 -224 t250 -76t260 92t104 247t-96 222.5t-253 67.5t-258 -90.5t-101 -238.5zM340 1067q0 -125 83 -188.5t213 -63.5t217 71.5t87 200t-81 189.5t-210 61t-219 -72.5t-90 -197.5z" />
<glyph unicode="9" d="M16 344h129q0 -266 277 -266q141 0 236.5 93t150.5 227t94 286q-59 -96 -160.5 -149.5t-220.5 -53.5q-186 0 -297.5 123t-111.5 311q0 233 144 382t365.5 149t330 -133t108.5 -350q0 -355 -149 -649q-78 -156 -201 -250.5t-304 -94.5t-286 94.5t-105 280.5zM242 899 q0 -139 91 -224t242.5 -85t254 124t102.5 277t-84 249.5t-245 96.5t-261 -128t-100 -310z" />
<glyph unicode=":" horiz-adv-x="569" d="M47 0l47 217h174l-49 -217h-172zM231 807l48 217h174l-50 -217h-172z" />
<glyph unicode=";" horiz-adv-x="569" d="M-25 -281l17 82q66 20 92.5 65.5t48.5 133.5h-86l49 217h172l-67 -287q-23 -96 -72 -140t-154 -71zM231 807l48 217h174l-50 -217h-172z" />
<glyph unicode="&#x3c;" horiz-adv-x="1228" d="M94 463v110l1041 480v-113l-914 -422l914 -422v-112z" />
<glyph unicode="=" horiz-adv-x="1228" d="M100 262v109h1030v-109h-1030zM100 666v108h1030v-108h-1030z" />
<glyph unicode="&#x3e;" horiz-adv-x="1228" d="M94 -16v112l914 422l-914 422v113l1041 -480v-110z" />
<glyph unicode="?" horiz-adv-x="1099" d="M178 1010q0 221 133 352t357 131q166 0 281.5 -90t115.5 -254q0 -117 -62.5 -218.5t-215 -200.5t-192.5 -165.5t-67 -191.5h-129q23 162 85.5 241.5t192.5 169.5t194.5 169t64.5 188.5t-75 176t-216 66.5t-239.5 -106.5t-98.5 -267.5h-129zM301 0l47 217h174l-49 -217 h-172z" />
<glyph unicode="@" horiz-adv-x="1638" d="M96 732q0 322 219.5 541.5t526.5 219.5t503.5 -177t196.5 -460q0 -240 -148.5 -417t-326.5 -177q-55 0 -93 36t-44 101q-135 -135 -261 -135t-200 85t-74 212q0 225 138.5 408.5t347.5 183.5q154 0 217 -172l51 133h108l-196 -590q-23 -79 -23 -110q0 -59 49 -60 q133 0 240 165t107 343q0 246 -168 392.5t-414 146.5q-283 0 -465 -194.5t-182 -480.5t185 -475.5t466 -189.5q154 0 297 73t231 200h105q-90 -166 -264 -265.5t-369 -99.5q-328 0 -544 220.5t-216 542.5zM524 571q0 -92 47 -145t123 -53q133 0 236.5 163.5t103.5 317.5 q0 70 -51 130t-111 60q-145 0 -246.5 -155.5t-101.5 -317.5z" />
<glyph unicode="A" horiz-adv-x="1290" d="M-154 0l895 1462h152l266 -1462h-145l-74 455h-668l-270 -455h-156zM342 573h578l-125 770z" />
<glyph unicode="B" horiz-adv-x="1366" d="M10 0l318 1462h567q180 0 290.5 -79.5t110.5 -238.5t-87 -258.5t-230 -121.5q113 -16 181.5 -102.5t68.5 -202.5q0 -242 -165 -350.5t-423 -108.5h-631zM176 119h496q170 0 294 82t124 234t-96.5 209.5t-250.5 57.5h-440zM330 821h461q152 0 259 76t107 206 q0 240 -264 240h-451z" />
<glyph unicode="C" horiz-adv-x="1441" d="M70 592q0 369 217 635t577 266q240 0 392.5 -129t152.5 -365h-139q0 180 -110.5 277.5t-297.5 97.5q-311 0 -482 -235.5t-171 -558.5q0 -227 128 -359.5t355 -132.5q178 0 309.5 108.5t186.5 303.5h139q-53 -238 -221 -384.5t-442.5 -146.5t-434 170t-159.5 453z" />
<glyph unicode="D" horiz-adv-x="1402" d="M10 0l318 1462h471q301 0 429 -151.5t128 -433.5q0 -367 -212 -622t-589 -255h-545zM176 119h352q342 0 515.5 225t173.5 559q0 440 -441 440h-334z" />
<glyph unicode="E" horiz-adv-x="1175" d="M10 0l312 1462h981l-27 -119h-840l-112 -528h784l-27 -119h-782l-123 -577h860l-26 -119h-1000z" />
<glyph unicode="F" horiz-adv-x="1099" d="M10 0l314 1462h936l-25 -119h-797l-112 -528h706l-22 -119h-711l-149 -696h-140z" />
<glyph unicode="G" horiz-adv-x="1517" d="M70 582q0 377 212 644t584 267q274 0 427 -126t153 -355h-139q0 178 -123 270t-330 92q-279 0 -462 -237.5t-183 -546.5q0 -229 122 -365.5t353 -136.5t387 150.5t195 386.5h-504l29 118h624l-153 -743h-95l25 246q-182 -277 -535 -277q-281 0 -434 164t-153 449z" />
<glyph unicode="H" horiz-adv-x="1441" d="M10 0l312 1462h139l-135 -635h845l136 635h139l-311 -1462h-140l152 709h-846l-151 -709h-140z" />
<glyph unicode="I" horiz-adv-x="454" d="M10 0l309 1462h140l-309 -1462h-140z" />
<glyph unicode="J" horiz-adv-x="1024" d="M-41 303q0 86 18 166h140q-19 -111 -19 -180q0 -104 72 -152.5t198.5 -48.5t195.5 88t102 244l223 1042h139l-233 -1093q-43 -201 -146.5 -300.5t-292.5 -99.5q-397 0 -397 334z" />
<glyph unicode="K" horiz-adv-x="1327" d="M10 0l312 1462h139l-168 -780l4 -4l944 784h195l-750 -610l522 -852h-159l-465 766l-326 -260l-108 -506h-140z" />
<glyph unicode="L" horiz-adv-x="1099" d="M10 0l316 1462h139l-289 -1343h809l-29 -119h-946z" />
<glyph unicode="M" horiz-adv-x="1744" d="M4 0l318 1462h202l228 -1312l802 1312h203l-313 -1462h-137l301 1323l-813 -1323h-140l-235 1343l-281 -1343h-135z" />
<glyph unicode="N" horiz-adv-x="1441" d="M0 0l315 1462h158l584 -1306l274 1306h135l-319 -1462h-154l-583 1307l-277 -1307h-133z" />
<glyph unicode="O" horiz-adv-x="1517" d="M70 592q0 369 217 635t577 266q276 0 441 -167t165 -445q0 -379 -215 -645.5t-585 -266.5q-281 0 -440.5 170t-159.5 453zM209 580q0 -227 128 -359.5t355 -132.5q285 0 462 231.5t177 526.5q0 240 -118 384t-351 144q-311 0 -482 -235.5t-171 -558.5z" />
<glyph unicode="P" horiz-adv-x="1290" d="M10 0l316 1462h589q170 0 280 -97t110 -263q0 -223 -139.5 -349t-364.5 -126h-516l-135 -627h-140zM311 745h494q158 0 259 90.5t101 245.5q0 262 -297 262h-428z" />
<glyph unicode="Q" horiz-adv-x="1517" d="M70 592q0 369 217 635t577 266q276 0 441 -167t165 -445q0 -229 -85 -430t-242 -324l186 -174l-82 -84l-205 192q-162 -92 -372 -92q-281 0 -440.5 170t-159.5 453zM209 580q0 -227 128 -359.5t355 -132.5q135 0 254 66l-164 151l80 84l185 -172q133 104 208.5 275.5 t75.5 353.5q0 240 -117.5 384t-351.5 144q-311 0 -482 -235.5t-171 -558.5z" />
<glyph unicode="R" horiz-adv-x="1327" d="M10 0l312 1462h622q184 0 283.5 -93t99.5 -264t-105.5 -289t-265.5 -118q187 -44 187 -266l-21 -305q0 -91 25 -127h-143q-10 6 -15.5 61.5t-5.5 88.5l21 262q0 237 -201 237h-516l-137 -649h-140zM313 768h494q168 0 274.5 81t106.5 225t-58.5 206.5t-191.5 62.5h-502z " />
<glyph unicode="S" horiz-adv-x="1290" d="M23 481h139q0 -207 106.5 -300t292 -93t312 80t126.5 224t-87 194.5t-275 105.5l-143 43q-289 82 -289 340q0 205 152.5 311.5t379 106.5t366.5 -107.5t140 -349.5h-139q0 184 -95.5 261t-269.5 77t-284.5 -73.5t-110.5 -219.5q0 -82 48 -139t198 -102l155 -47 q197 -59 295.5 -133t98.5 -236t-127 -308.5t-439 -146.5q-254 0 -402 128t-148 384z" />
<glyph unicode="T" d="M141 1343l25 119h1143l-25 -119h-502l-293 -1343h-139l293 1343h-502z" />
<glyph unicode="U" horiz-adv-x="1441" d="M98 389q0 47 13 119l196 954h139l-194 -930q-14 -59 -14 -126q0 -156 106.5 -237t297 -81t310 99.5t158.5 285.5l207 989h139l-209 -999q-104 -494 -629 -494q-217 0 -368.5 102.5t-151.5 317.5z" />
<glyph unicode="V" horiz-adv-x="1214" d="M131 1462h143l187 -1343l753 1343h152l-844 -1462h-162z" />
<glyph unicode="W" horiz-adv-x="1857" d="M145 1462h140l75 -1300l627 1300h168l100 -1288l603 1288h145l-705 -1462h-151l-96 1329l-643 -1329h-154z" />
<glyph unicode="X" horiz-adv-x="1175" d="M-139 0l671 762l-360 700h154l303 -614l530 614h166l-635 -723l381 -739h-147l-326 651l-573 -651h-164z" />
<glyph unicode="Y" horiz-adv-x="1175" d="M135 1462h148l329 -741l613 741h170l-733 -872l-130 -590h-141l133 604z" />
<glyph unicode="Z" horiz-adv-x="1175" d="M-102 0l26 123l1166 1220h-889l26 119h1055l-25 -116l-1169 -1227h975l-27 -119h-1138z" />
<glyph unicode="[" horiz-adv-x="493" d="M-57 -391l399 1884h334l-23 -109h-200l-359 -1667h199l-21 -108h-329z" />
<glyph unicode="\" horiz-adv-x="681" d="M-119 1493h121l842 -1524h-121z" />
<glyph unicode="]" horiz-adv-x="493" d="M-152 -391l23 108h201l358 1667h-199l21 109h330l-400 -1884h-334z" />
<glyph unicode="^" horiz-adv-x="1228" d="M90 487l471 928h107l471 -928h-117l-410 799l-403 -799h-119z" />
<glyph unicode="_" horiz-adv-x="1024" d="M0 -154h1024v-102h-1024v102z" />
<glyph unicode="`" horiz-adv-x="378" d="M137 1493h152l168 -295h-103z" />
<glyph unicode="a" horiz-adv-x="1062" d="M-18 264.5q0 151.5 99 224t200.5 90t230.5 24.5t183.5 20.5t85 58.5t30.5 145q0 152 -223 152q-298 0 -332 -238h-129q25 172 145.5 259t279 87t273.5 -55t115 -180q0 -78 -25.5 -185.5t-41 -181t-42 -189.5t-26.5 -158t67 -42l52 4l-19 -102q-47 -10 -103 -10t-86 29.5 t-30 84.5l4 58l-4 4q-53 -90 -153.5 -142.5t-235 -52.5t-225 72t-90.5 223.5zM111 268q0 -94 67.5 -142t167.5 -48q154 0 250 82t129 227l41 178l-4 4q-46 -59 -226 -59t-302.5 -47t-122.5 -195z" />
<glyph unicode="b" horiz-adv-x="1175" d="M-23 0l312 1462h129l-125 -592q59 98 156.5 157.5t212.5 59.5q195 0 298 -121.5t103 -318.5q0 -262 -151.5 -470t-407.5 -208q-135 0 -231.5 72t-122.5 201l-56 -242h-117zM199 399q0 -141 73.5 -231t214.5 -90q207 0 327 177t120 396q0 154 -75 241t-228 87 q-197 0 -314.5 -186.5t-117.5 -393.5z" />
<glyph unicode="c" horiz-adv-x="1062" d="M29 406q0 268 156.5 474.5t416.5 206.5q178 0 286.5 -91t108.5 -269h-129q0 117 -69.5 184.5t-184.5 67.5q-217 0 -336.5 -172t-119.5 -401q0 -147 74.5 -237.5t210 -90.5t225.5 71.5t133 192.5h129q-120 -373 -494 -373q-193 0 -300 119t-107 318z" />
<glyph unicode="d" horiz-adv-x="1175" d="M29 401q0 260 161.5 473t415.5 213q278 0 344 -229l131 604h129l-313 -1462h-125l47 190q-74 -111 -166 -166t-223 -55q-197 0 -299 117t-102 315zM158 393q0 -143 71.5 -229t212.5 -86q209 0 335 187.5t126 408.5q0 141 -77.5 223t-217.5 82q-207 0 -328.5 -183.5 t-121.5 -402.5z" />
<glyph unicode="e" horiz-adv-x="1062" d="M29 418q0 268 155.5 468.5t415.5 200.5q188 0 294.5 -112.5t106.5 -298.5q0 -104 -10 -182h-827l-6 -82q0 -150 77.5 -242t215 -92t230.5 72.5t130 189.5h129q-109 -371 -481 -371q-207 0 -318.5 120t-111.5 329zM180 602h690l2 82q0 131 -77.5 213t-220 82t-250 -109.5 t-144.5 -267.5z" />
<glyph unicode="f" horiz-adv-x="530" d="M37 0l209 948h-185l25 109h182l33 153q27 125 91.5 188.5t191.5 63.5q87 0 133 -14l-23 -107q-41 6 -80 13q-88 0 -128 -34t-58 -116l-31 -147h209l-24 -109h-207l-209 -948h-129z" />
<glyph unicode="g" d="M-41 -80h129q0 -125 83 -179t214 -54q211 0 278.5 129t135.5 397l-4 4q-53 -90 -151.5 -142t-209.5 -52q-186 0 -288.5 119.5t-102.5 310.5q0 250 149.5 442t391.5 192q127 0 226 -64.5t120 -182.5l49 217h119l-201 -946q-61 -287 -176 -410t-354 -123q-178 0 -293 82 t-115 260zM172 463q0 -145 72 -238.5t213 -93.5q186 0 304 165t118 359q0 150 -70 237t-219 87q-184 0 -301 -162t-117 -354z" />
<glyph unicode="h" horiz-adv-x="1099" d="M-23 0l316 1462h129l-129 -598q59 96 160.5 159.5t231.5 63.5t216 -68.5t86 -215.5q0 -47 -16 -125l-146 -678h-129l148 682q14 57 14 106q0 98 -62.5 144.5t-158.5 46.5q-143 0 -257 -118t-157 -318l-117 -543h-129z" />
<glyph unicode="i" horiz-adv-x="378" d="M-23 0l228 1057h129l-228 -1057h-129zM248 1255l45 207h129l-45 -207h-129z" />
<glyph unicode="j" horiz-adv-x="378" d="M-281 -381l25 107l74 -9q55 0 82.5 28t42.5 79l262 1233h129l-264 -1237q-27 -111 -84.5 -161t-175.5 -50q-18 0 -51 5t-40 5zM248 1255l43 207h131l-45 -207h-129z" />
<glyph unicode="k" horiz-adv-x="948" d="M-23 0l312 1462h129l-197 -917l4 -4l619 516h172l-500 -408l320 -649h-142l-280 571l-226 -188l-82 -383h-129z" />
<glyph unicode="l" horiz-adv-x="378" d="M-23 0l316 1462h129l-316 -1462h-129z" />
<glyph unicode="m" horiz-adv-x="1705" d="M-23 0l228 1057h119l-41 -185l4 -4q59 96 158.5 157.5t213.5 61.5q233 0 256 -225q70 104 165.5 164.5t225 60.5t203.5 -75.5t74 -202.5q0 -52 -14 -121l-148 -688h-129l150 692q12 55 12 107q0 180 -201 180q-156 0 -245.5 -131t-139.5 -361l-104 -487h-129l147 688 q13 56 13 102q0 85 -43 137t-136 52q-137 0 -245.5 -126t-149.5 -316l-115 -537h-129z" />
<glyph unicode="n" horiz-adv-x="1099" d="M-23 0l228 1057h119l-37 -193q66 98 167 160.5t231 62.5t216 -68.5t86 -215.5q0 -47 -16 -125l-146 -678h-129l148 682q14 57 14 106q0 98 -62.5 144.5t-158.5 46.5q-143 0 -257 -118t-157 -318l-117 -543h-129z" />
<glyph unicode="o" d="M29 410q0 276 159.5 476.5t429.5 200.5q188 0 303 -110t115 -303q0 -289 -153.5 -497t-431.5 -208q-201 0 -311.5 119t-110.5 322zM158 422q0 -158 80.5 -251t236.5 -93q197 0 314.5 181t117.5 388q0 152 -79.5 242t-231.5 90q-199 0 -318.5 -174t-119.5 -383z" />
<glyph unicode="p" horiz-adv-x="1175" d="M-94 -391l311 1448h117l-41 -191q74 111 166 166t223 55q197 0 299 -116.5t102 -315.5q0 -260 -161.5 -473t-415.5 -213q-135 0 -226.5 58.5t-111.5 183.5l-133 -602h-129zM209 383q0 -141 78 -223t217 -82q207 0 328.5 183t121.5 403q0 143 -71.5 229t-212.5 86 q-209 0 -335 -187.5t-126 -408.5z" />
<glyph unicode="q" horiz-adv-x="1175" d="M45 410q0 262 151.5 469.5t407.5 207.5q133 0 231.5 -65.5t131.5 -175.5l49 211h119l-312 -1448h-129l125 577q-63 -100 -159.5 -158.5t-213.5 -58.5q-195 0 -298 122t-103 319zM174 406q0 -154 75 -241t228 -87q197 0 314.5 186.5t117.5 392.5q0 141 -73.5 231.5 t-214.5 90.5q-207 0 -327 -177t-120 -396z" />
<glyph unicode="r" horiz-adv-x="645" d="M-23 0l228 1057h117l-54 -244q72 127 162 192.5t225 65.5l70 -2l-29 -129l-73 2q-162 0 -261.5 -110.5t-136.5 -278.5l-119 -553h-129z" />
<glyph unicode="s" horiz-adv-x="985" d="M-2 344h129q0 -141 85 -203.5t200.5 -62.5t197.5 50t82 150t-83 141.5t-212 91.5t-200.5 109.5t-71.5 189.5t121 203.5t282.5 73.5t263 -81.5t101.5 -257.5h-129q0 117 -66.5 174t-176 57t-188.5 -41t-79 -139q0 -68 55.5 -109t200.5 -98t228 -113.5t83 -185.5 q0 -164 -127 -244t-296 -80t-284.5 94.5t-115.5 280.5z" />
<glyph unicode="t" horiz-adv-x="606" d="M63 948l25 109h191l67 319h129l-67 -319h210l-20 -109h-215l-145 -678q-15 -72 -15 -100q0 -74 68 -74q74 0 151 13l-22 -113q-79 -8 -149 -8t-123.5 31.5t-53.5 119.5q0 43 6 67.5t9 41.5l145 700h-191z" />
<glyph unicode="u" horiz-adv-x="1099" d="M41 254q0 47 16 125l146 678h129l-148 -682q-14 -57 -14 -107q0 -98 62.5 -144t158.5 -46q143 0 257 117.5t157 318.5l117 543h129l-228 -1057h-118l36 193q-66 -98 -167 -161t-231 -63t-216 68.5t-86 216.5z" />
<glyph unicode="v" horiz-adv-x="948" d="M72 1057h135l125 -912l499 912h142l-596 -1057h-139z" />
<glyph unicode="w" horiz-adv-x="1517" d="M61 1057h136l84 -901l440 901h151l72 -893l453 893h137l-555 -1057h-139l-76 887l-438 -887h-142z" />
<glyph unicode="x" horiz-adv-x="948" d="M-119 0l504 557l-248 500h148l192 -416l365 416h155l-465 -512l281 -545h-147l-226 461l-405 -461h-154z" />
<glyph unicode="y" horiz-adv-x="948" d="M-113 -381l25 105l111 -7q99 0 165 115l97 168l-195 1057h135l152 -897l491 897h140l-752 -1307q-80 -141 -256 -141q-20 0 -61 5t-52 5z" />
<glyph unicode="z" horiz-adv-x="872" d="M-119 0l23 104l817 844h-631l23 109h794l-22 -103l-822 -845h678l-22 -109h-838z" />
<glyph unicode="{" horiz-adv-x="681" d="M119 496l22 108q150 0 217 328l64 305q23 119 85 187.5t148 68.5h103l-23 -109h-47q-53 0 -87 -38.5t-60 -171.5l-60 -289q-23 -111 -84 -205t-133 -127q86 -78 86 -219q0 -49 -14 -117l-55 -264q-27 -118 -27 -150.5t15.5 -59t64.5 -26.5h53l-22 -108h-82 q-63 0 -110.5 47t-47.5 127q0 35 10 82l64 303q22 112 22 172q0 156 -102 156z" />
<glyph unicode="|" horiz-adv-x="454" d="M174 -31v1524h109v-1524h-109z" />
<glyph unicode="}" horiz-adv-x="681" d="M-125 -391l23 108h47q53 0 87 39t60 172l60 289q23 111 84 205t133 127q-86 78 -86 219q0 49 14 117l55 264q6 35 16.5 82t10.5 73.5t-15.5 53t-64.5 26.5h-53l22 109h82q63 0 110.5 -47t47.5 -127q0 -35 -10 -82l-64 -303q-22 -112 -22 -172q0 -156 102 -156l-22 -108 q-148 0 -218 -328l-63 -305q-23 -119 -85.5 -187.5t-148.5 -68.5h-102z" />
<glyph unicode="~" horiz-adv-x="1228" d="M141 461q41 80 100.5 128t155.5 48q84 0 208 -54.5t163 -66.5t80 -12q75 0 166 141l73 -74q-63 -88 -116 -132t-140 -44q-85 0 -192 51.5t-153 66.5t-99 15q-108 0 -172 -141z" />
<glyph unicode="&#xa1;" horiz-adv-x="569" d="M-4 -391l94 461l172 637h76l-111 -641l-94 -457h-137zM244 840l47 217h174l-49 -217h-172z" />
<glyph unicode="&#xa2;" d="M74 406q0 264 155.5 472.5t409.5 208.5l39 179h78l-39 -183q150 -18 237.5 -107t87.5 -249h-129q0 109 -59 175.5t-160 76.5l-192 -901q123 0 211 70.5t133 193.5h129q-120 -373 -494 -373l-49 -209h-80l47 217q-156 23 -240.5 136.5t-84.5 292.5zM203 406 q0 -127 55 -212t164 -108l192 893q-195 -20 -303 -190.5t-108 -382.5z" />
<glyph unicode="&#xa3;" d="M-8 86q168 135 225 232.5t57 199.5q0 41 -9 85t-13 69h-178l14 69h143q-53 143 -53 267q0 225 140.5 355t342.5 130t324.5 -116.5t122.5 -307.5q0 -33 -2 -49h-129q0 166 -74 265t-229.5 99t-261 -93t-105.5 -255.5t53 -294.5h324l-12 -69h-293q24 -98 24 -160 q0 -135 -80.5 -220t-183.5 -173l4 -4q109 47 215 47q53 0 125 -26.5t121 -42t108 -15.5q107 0 234 121l49 -103q-74 -70 -150.5 -98.5t-147 -28.5t-114.5 12.5t-99 32.5q-105 39 -204.5 39t-238.5 -80z" />
<glyph unicode="&#xa4;" d="M61 279l115 114q-115 133 -115 313.5t113 319.5l-113 113l78 78l113 -113q139 113 317 113t318 -113l112 113l78 -78l-112 -113q113 -135 112.5 -315t-112.5 -320l112 -112l-78 -78l-114 114q-133 -115 -316 -114q-182 0 -317 112l-113 -112zM190 709 q0 -158 110.5 -268.5t268.5 -110.5t268.5 110.5t110.5 268.5t-110.5 268t-268.5 110t-268.5 -110.5t-110.5 -267.5z" />
<glyph unicode="&#xa5;" d="M172 1462h131l279 -747l561 747h153l-575 -747h227l-20 -92h-279l-24 -33l-31 -137h299l-21 -93h-299l-77 -360h-129l79 360h-270l21 93h270l33 151l-6 19h-263l21 92h205z" />
<glyph unicode="&#xa6;" horiz-adv-x="454" d="M174 -31v563h109v-563h-109zM174 930v563h109v-563h-109z" />
<glyph unicode="&#xa7;" d="M20 27h130q-2 -12 -3 -35q0 -102 71 -167t170 -65t169 48.5t70 140.5t-69 166.5t-217 216t-198.5 227.5t-50.5 170q0 123 84 207t211 100q-53 77 -53 158q0 135 100.5 217t261 82t253.5 -87t93 -271h-129q0 115 -54 182t-157.5 67t-171 -46t-67.5 -143t75.5 -173 t210 -199t184.5 -208t50 -164q0 -131 -80 -217.5t-213 -102.5q66 -87 66 -176q0 -147 -110.5 -225t-269.5 -78t-257.5 104.5t-98.5 270.5zM221 729q0 -104 187 -291l227 -229q94 12 156.5 69.5t62.5 149.5q0 117 -164 281q-35 35 -130 123t-124 120q-74 0 -144.5 -66.5 t-70.5 -156.5z" />
<glyph unicode="&#xa8;" horiz-adv-x="378" d="M76 1231l39 209h131l-41 -209h-129zM401 1231l39 209h131l-41 -209h-129z" />
<glyph unicode="&#xa9;" horiz-adv-x="1638" d="M57 729q0 321 219.5 542.5t542.5 221.5q324 0 543 -219t219 -540.5t-219 -543t-543 -221.5t-543 219.5t-219 540.5zM176 731q0 -276 184.5 -464.5t458.5 -188.5t458.5 188.5t184.5 464.5t-184.5 464.5t-458.5 188.5t-458.5 -188t-184.5 -465zM393 731q0 207 119 338 t326 131q150 0 254 -82t125 -227h-105q-18 96 -91 156.5t-181 60.5q-160 0 -249 -105.5t-89 -271.5t88 -271.5t250 -105.5q109 0 181.5 60.5t90.5 156.5h105q-20 -145 -125 -227t-254 -82q-203 0 -324 131t-121 338z" />
<glyph unicode="&#xaa;" horiz-adv-x="636" d="M49 940q0 100 64.5 145t133 56.5t148.5 14.5t136.5 16.5t56.5 105.5q0 47 -43 67.5t-92 20.5q-197 0 -222 -139h-88q16 109 98.5 164t204.5 55q123 0 180.5 -44t57.5 -98.5t-14 -115.5t-28.5 -125t-29 -122t-14.5 -62q0 -27 43 -27l33 2l-12 -76l-68 -6q-76 0 -76 72 l6 35q-39 -59 -104.5 -92t-157.5 -33t-152.5 43t-60.5 143zM145 940q0 -51 44 -78.5t125 -27.5t143.5 48t83.5 136l26 100l-6 2q-14 -20 -43 -24t-137.5 -15.5t-172 -33t-63.5 -107.5z" />
<glyph unicode="&#xab;" horiz-adv-x="872" d="M102 526l31 131l326 232l-31 -139l-238 -172l154 -209l-25 -129zM430 526l31 131l325 232l-30 -139l-238 -172l154 -209l-25 -129z" />
<glyph unicode="&#xac;" horiz-adv-x="1228" d="M100 666v108h1030v-547h-108v439h-922z" />
<glyph unicode="&#xad;" horiz-adv-x="757" d="M78 504l24 119h514l-24 -119h-514z" />
<glyph unicode="&#xae;" horiz-adv-x="1638" d="M57 729q0 321 219.5 542.5t542.5 221.5q324 0 543 -219t219 -540.5t-219 -543t-543 -221.5t-543 219.5t-219 540.5zM176 731q0 -276 184.5 -464.5t458.5 -188.5t458.5 188.5t184.5 464.5t-184 464.5t-459 188.5q-274 0 -458.5 -188.5t-184.5 -464.5zM543 291v880h338 q286 0 286 -243q0 -111 -60 -170.5t-161 -75.5l262 -391h-127l-247 391h-183v-391h-108zM651 774h144q131 0 197.5 26.5t66.5 119t-58.5 126t-150.5 33.5h-199v-305z" />
<glyph unicode="&#xb0;" horiz-adv-x="819" d="M240 1151q0 123 86 209t209 86t208.5 -86t85.5 -209t-86 -209t-208 -86q-123 0 -209 86t-86 209zM319 1151q0 -90 63 -152.5t153 -62.5t152.5 62.5t62.5 152.5t-62.5 152.5t-152.5 62.5t-153 -62.5t-63 -152.5z" />
<glyph unicode="&#xb1;" horiz-adv-x="1228" d="M100 0v109h1030v-109h-1030zM102 553v109h459v368h109v-368h460v-109h-460v-369h-109v369h-459z" />
<glyph unicode="&#xb2;" horiz-adv-x="681" d="M23 561q0 125 83.5 203t238.5 155.5t227.5 138t72.5 146t-54 124t-144 38.5t-153 -66.5t-63 -158.5h-96q0 133 92 219t223.5 86t211 -60.5t79.5 -172.5t-68.5 -180t-188 -131.5t-226.5 -119.5q-113 -70 -123 -141h504l-14 -80h-602z" />
<glyph unicode="&#xb3;" horiz-adv-x="681" d="M49 846h84q0 -111 45 -167t153.5 -56t181.5 58t73 142q0 154 -207 154h-45l14 80h53q109 0 175.5 33.5t66.5 117t-51 121t-138 37.5t-145.5 -53t-75.5 -146h-83q52 279 317 279q121 0 196.5 -56.5t75.5 -151.5t-55 -152.5t-139 -69.5q66 -18 101.5 -66.5t35.5 -115.5 q0 -135 -100.5 -213t-253 -78t-216 76.5t-63.5 226.5z" />
<glyph unicode="&#xb4;" horiz-adv-x="378" d="M172 1198l238 295h165l-294 -295h-109z" />
<glyph unicode="&#xb5;" horiz-adv-x="1099" d="M-104 -391l307 1448h129l-148 -682q-14 -57 -14 -107q0 -98 62.5 -144t158.5 -46q143 0 257 117.5t157 318.5l117 543h129l-228 -1057h-118l36 193q-66 -98 -167 -161t-214 -63q-170 0 -247 84l-93 -444h-124z" />
<glyph unicode="&#xb6;" horiz-adv-x="1228" d="M143 987q0 41 23.5 153.5t165 217t358.5 104.5h445l-379 -1824h-109l361 1734h-260l-361 -1734h-108l215 1034q-156 0 -253.5 89t-97.5 226z" />
<glyph unicode="&#xb8;" horiz-adv-x="378" d="M-174 -373l29 60q86 -35 159 -35q115 0 115 84q0 41 -31.5 62.5t-77 21.5t-81.5 -19l-33 37l149 174h76l-119 -127l4 -4q33 8 87.5 8t96.5 -34.5t42 -109.5t-68 -119t-159.5 -44t-188.5 45z" />
<glyph unicode="&#xb9;" horiz-adv-x="681" d="M221 1194l19 80q96 12 169.5 46t122.5 107h78l-198 -866h-99l162 703q-51 -31 -128 -50.5t-126 -19.5z" />
<glyph unicode="&#xba;" horiz-adv-x="684" d="M74 1028q0 174 104.5 296t288.5 122q129 0 203.5 -66.5t74.5 -191.5q0 -180 -101 -307t-288 -127q-137 0 -209.5 72.5t-72.5 201.5zM170 1050q0 -216 203 -216q125 0 200.5 108.5t75.5 212.5t-51 157.5t-147 53.5q-125 0 -203 -104.5t-78 -211.5z" />
<glyph unicode="&#xbb;" horiz-adv-x="872" d="M31 240l30 139l238 172l-154 209l25 129l217 -287l-31 -131zM358 240l31 139l238 172l-154 209l25 129l217 -287l-31 -131z" />
<glyph unicode="&#xbc;" horiz-adv-x="1708" d="M221 1194l19 80q96 12 169.5 46t122.5 107h78l-198 -866h-99l162 703q-51 -31 -128 -50.5t-126 -19.5zM315 -70l910 1555h108l-909 -1555h-109zM911 203l15 88l563 569h92l-133 -577h129l-14 -80h-133l-48 -203h-96l47 203h-422zM1028 283h322l100 430l-4 4z" />
<glyph unicode="&#xbd;" horiz-adv-x="1708" d="M170 1194l18 80q96 12 170 46t123 107h78l-199 -866h-98l162 703q-51 -31 -128 -50.5t-126 -19.5zM266 -70l910 1555h108l-909 -1555h-109zM918 0q0 125 83.5 203t238.5 155.5t227.5 138t72.5 145.5t-54 124t-144 39t-153 -66.5t-63 -158.5h-96q0 133 92 219t223.5 86 t211 -60.5t79.5 -172.5t-68.5 -180.5t-188 -132t-226.5 -118.5q-113 -70 -123 -141h504l-14 -80h-602z" />
<glyph unicode="&#xbe;" horiz-adv-x="1708" d="M49 846h84q0 -111 45 -167t153.5 -56t181.5 58t73 142q0 154 -207 154h-45l14 80h53q109 0 175.5 33.5t66.5 117t-51 121t-138 37.5t-145.5 -53t-75.5 -146h-83q52 279 317 279q121 0 196.5 -56.5t75.5 -151.5t-55 -152.5t-139 -69.5q66 -18 101.5 -66.5t35.5 -115.5 q0 -135 -100.5 -213t-253 -78t-216 76.5t-63.5 226.5zM387 -70l909 1555h109l-909 -1555h-109zM911 203l15 88l563 569h92l-133 -577h129l-14 -80h-133l-48 -203h-96l47 203h-422zM1028 283h322l100 430l-4 4z" />
<glyph unicode="&#xbf;" horiz-adv-x="1099" d="M-39 -78q0 117 62.5 218.5t215 200.5t192.5 165.5t67 191.5h129q-23 -162 -85.5 -241.5t-192.5 -169.5t-194.5 -169t-64.5 -188.5t75 -176t216.5 -66.5t239.5 106.5t98 267.5h129q0 -221 -133 -352t-357 -131q-166 0 -281.5 90t-115.5 254zM504 840l47 217h174l-49 -217 h-172z" />
<glyph unicode="&#xc0;" horiz-adv-x="1290" d="M-154 0l895 1462h152l266 -1462h-145l-74 455h-668l-270 -455h-156zM342 573h578l-125 770zM594 1858h152l168 -295h-103z" />
<glyph unicode="&#xc1;" horiz-adv-x="1290" d="M-154 0l895 1462h152l266 -1462h-145l-74 455h-668l-270 -455h-156zM342 573h578l-125 770zM666 1563l238 295h165l-294 -295h-109z" />
<glyph unicode="&#xc2;" horiz-adv-x="1290" d="M-154 0l895 1462h152l266 -1462h-145l-74 455h-668l-270 -455h-156zM342 573h578l-125 770zM488 1563l278 295h129l177 -295h-117l-135 217l-207 -217h-125z" />
<glyph unicode="&#xc3;" horiz-adv-x="1290" d="M-154 0l895 1462h152l266 -1462h-145l-74 455h-668l-270 -455h-156zM342 573h578l-125 770zM486 1594q25 90 68.5 148.5t121.5 58.5q55 0 127 -44t99.5 -57.5t58.5 -13.5t57.5 39t36.5 76h82q-32 -137 -113 -188q-30 -19 -69 -19t-66.5 11t-76 38t-84 46t-65.5 19 t-57.5 -36.5t-35.5 -77.5h-84z" />
<glyph unicode="&#xc4;" horiz-adv-x="1290" d="M-154 0l895 1462h152l266 -1462h-145l-74 455h-668l-270 -455h-156zM342 573h578l-125 770zM570 1596l39 209h131l-41 -209h-129zM895 1596l39 209h131l-41 -209h-129z" />
<glyph unicode="&#xc5;" horiz-adv-x="1290" d="M-154 0l895 1462h152l266 -1462h-145l-74 455h-668l-270 -455h-156zM342 573h578l-125 770zM617 1743q0 84 60.5 144.5t142.5 60.5t143 -59.5t61 -144.5t-59 -144t-144 -59t-144.5 59t-59.5 143zM687 1744.5q0 -54.5 39.5 -94.5t93.5 -40q53 0 94 41t41 93t-41 93t-94 41 t-93 -39.5t-40 -94z" />
<glyph unicode="&#xc6;" horiz-adv-x="1820" d="M-166 0l1094 1462h1020l-27 -119h-731l-115 -528h686l-26 -119h-684l-125 -577h755l-26 -119h-895l100 463h-522l-340 -463h-164zM426 582h459l166 761h-62z" />
<glyph unicode="&#xc7;" horiz-adv-x="1441" d="M70 592q0 369 217 635t577 266q240 0 392.5 -129t152.5 -365h-139q0 180 -110.5 277.5t-297.5 97.5q-311 0 -482 -235.5t-171 -558.5q0 -227 128 -359.5t355 -132.5q178 0 309.5 108.5t186.5 303.5h139q-53 -238 -221 -384.5t-436 -146.5l-47 2l-80 -86l4 -4q33 8 87.5 8 t96 -34.5t41.5 -109.5t-67.5 -119t-159.5 -44t-189 45l29 60q86 -35 160 -35q114 0 114 84q0 41 -31.5 62.5t-76.5 21.5t-82 -19l-33 37l123 144q-231 31 -360 194.5t-129 415.5z" />
<glyph unicode="&#xc8;" horiz-adv-x="1175" d="M10 0l312 1462h981l-27 -119h-840l-112 -528h784l-27 -119h-782l-123 -577h860l-26 -119h-1000zM629 1858h152l168 -295h-103z" />
<glyph unicode="&#xc9;" horiz-adv-x="1175" d="M10 0l312 1462h981l-27 -119h-840l-112 -528h784l-27 -119h-782l-123 -577h860l-26 -119h-1000zM664 1563l238 295h165l-294 -295h-109z" />
<glyph unicode="&#xca;" horiz-adv-x="1175" d="M10 0l312 1462h981l-27 -119h-840l-112 -528h784l-27 -119h-782l-123 -577h860l-26 -119h-1000zM486 1563l278 295h129l177 -295h-117l-135 217l-207 -217h-125z" />
<glyph unicode="&#xcb;" horiz-adv-x="1175" d="M10 0l312 1462h981l-27 -119h-840l-112 -528h784l-27 -119h-782l-123 -577h860l-26 -119h-1000zM568 1596l39 209h131l-41 -209h-129zM893 1596l39 209h131l-41 -209h-129z" />
<glyph unicode="&#xcc;" horiz-adv-x="454" d="M10 0l309 1462h140l-309 -1462h-140zM213 1858h152l168 -295h-103z" />
<glyph unicode="&#xcd;" horiz-adv-x="454" d="M10 0l309 1462h140l-309 -1462h-140zM248 1563l238 295h165l-294 -295h-109z" />
<glyph unicode="&#xce;" horiz-adv-x="454" d="M10 0l309 1462h140l-309 -1462h-140zM70 1563l278 295h129l177 -295h-117l-135 217l-207 -217h-125z" />
<glyph unicode="&#xcf;" horiz-adv-x="454" d="M10 0l309 1462h140l-309 -1462h-140zM152 1596l39 209h131l-41 -209h-129zM477 1596l39 209h131l-41 -209h-129z" />
<glyph unicode="&#xd0;" horiz-adv-x="1402" d="M4 713l21 92h161l142 657h471q301 0 429 -151.5t128 -433.5q0 -367 -212 -622t-589 -255h-545l156 713h-162zM176 119h352q342 0 515.5 225t173.5 559q0 440 -441 440h-334l-116 -538h436l-21 -92h-436z" />
<glyph unicode="&#xd1;" horiz-adv-x="1441" d="M0 0l315 1462h158l584 -1306l274 1306h135l-319 -1462h-154l-583 1307l-277 -1307h-133zM598 1594q25 90 68.5 148.5t121.5 58.5q55 0 127 -44t99.5 -57.5t58.5 -13.5t57.5 39t36.5 76h82q-32 -137 -113 -188q-30 -19 -69 -19t-66.5 11t-76 38t-84 46t-65.5 19 t-57.5 -36.5t-35.5 -77.5h-84z" />
<glyph unicode="&#xd2;" horiz-adv-x="1517" d="M70 592q0 369 217 635t577 266q276 0 441 -167t165 -445q0 -379 -215 -645.5t-585 -266.5q-281 0 -440.5 170t-159.5 453zM209 580q0 -227 128 -359.5t355 -132.5q285 0 462 231.5t177 526.5q0 240 -118 384t-351 144q-311 0 -482 -235.5t-171 -558.5zM706 1858h152 l168 -295h-103z" />
<glyph unicode="&#xd3;" horiz-adv-x="1517" d="M70 592q0 369 217 635t577 266q276 0 441 -167t165 -445q0 -379 -215 -645.5t-585 -266.5q-281 0 -440.5 170t-159.5 453zM209 580q0 -227 128 -359.5t355 -132.5q285 0 462 231.5t177 526.5q0 240 -118 384t-351 144q-311 0 -482 -235.5t-171 -558.5zM741 1563l238 295 h165l-294 -295h-109z" />
<glyph unicode="&#xd4;" horiz-adv-x="1517" d="M70 592q0 369 217 635t577 266q276 0 441 -167t165 -445q0 -379 -215 -645.5t-585 -266.5q-281 0 -440.5 170t-159.5 453zM209 580q0 -227 128 -359.5t355 -132.5q285 0 462 231.5t177 526.5q0 240 -118 384t-351 144q-311 0 -482 -235.5t-171 -558.5zM563 1563l278 295 h129l177 -295h-117l-135 217l-207 -217h-125z" />
<glyph unicode="&#xd5;" horiz-adv-x="1517" d="M70 592q0 369 217 635t577 266q276 0 441 -167t165 -445q0 -379 -215 -645.5t-585 -266.5q-281 0 -440.5 170t-159.5 453zM209 580q0 -227 128 -359.5t355 -132.5q285 0 462 231.5t177 526.5q0 240 -118 384t-351 144q-311 0 -482 -235.5t-171 -558.5zM561 1594 q25 90 68.5 148.5t121.5 58.5q55 0 127 -44t99.5 -57.5t58.5 -13.5t57.5 39t36.5 76h82q-32 -137 -113 -188q-30 -19 -69 -19t-66.5 11t-76 38t-84 46t-65.5 19t-57.5 -36.5t-35.5 -77.5h-84z" />
<glyph unicode="&#xd6;" horiz-adv-x="1517" d="M70 592q0 369 217 635t577 266q276 0 441 -167t165 -445q0 -379 -215 -645.5t-585 -266.5q-281 0 -440.5 170t-159.5 453zM209 580q0 -227 128 -359.5t355 -132.5q285 0 462 231.5t177 526.5q0 240 -118 384t-351 144q-311 0 -482 -235.5t-171 -558.5zM645 1596l39 209 h131l-41 -209h-129zM970 1596l39 209h131l-41 -209h-129z" />
<glyph unicode="&#xd7;" horiz-adv-x="1228" d="M152 127l385 387l-385 387l75 76l387 -387l387 387l76 -76l-387 -387l387 -387l-76 -76l-387 385l-387 -385z" />
<glyph unicode="&#xd8;" horiz-adv-x="1517" d="M10 0l180 186q-121 158 -120 406q0 369 217 635t577 266q264 0 428 -156l172 181l52 -60l-170 -176q125 -160 124 -401q0 -379 -215 -645.5t-585 -266.5q-270 0 -430 162l-181 -186zM209 580q0 -178 78 -293l913 954q-124 133 -338 133q-311 0 -482 -235.5t-171 -558.5z M334 229q131 -141 358 -141q285 0 462 231.5t177 526.5q0 203 -84 334z" />
<glyph unicode="&#xd9;" horiz-adv-x="1441" d="M98 389q0 47 13 119l196 954h139l-194 -930q-14 -59 -14 -126q0 -156 106.5 -237t297 -81t310 99.5t158.5 285.5l207 989h139l-209 -999q-104 -494 -629 -494q-217 0 -368.5 102.5t-151.5 317.5zM669 1858h152l168 -295h-103z" />
<glyph unicode="&#xda;" horiz-adv-x="1441" d="M98 389q0 47 13 119l196 954h139l-194 -930q-14 -59 -14 -126q0 -156 106.5 -237t297 -81t310 99.5t158.5 285.5l207 989h139l-209 -999q-104 -494 -629 -494q-217 0 -368.5 102.5t-151.5 317.5zM778 1563l238 295h165l-294 -295h-109z" />
<glyph unicode="&#xdb;" horiz-adv-x="1441" d="M98 389q0 47 13 119l196 954h139l-194 -930q-14 -59 -14 -126q0 -156 106.5 -237t297 -81t310 99.5t158.5 285.5l207 989h139l-209 -999q-104 -494 -629 -494q-217 0 -368.5 102.5t-151.5 317.5zM600 1563l278 295h129l177 -295h-117l-135 217l-207 -217h-125z" />
<glyph unicode="&#xdc;" horiz-adv-x="1441" d="M98 389q0 47 13 119l196 954h139l-194 -930q-14 -59 -14 -126q0 -156 106.5 -237t297 -81t310 99.5t158.5 285.5l207 989h139l-209 -999q-104 -494 -629 -494q-217 0 -368.5 102.5t-151.5 317.5zM682 1596l39 209h131l-41 -209h-129zM1007 1596l39 209h131l-41 -209h-129 z" />
<glyph unicode="&#xdd;" horiz-adv-x="1175" d="M135 1462h148l329 -741l613 741h170l-733 -872l-130 -590h-141l133 604zM571 1563l238 295h165l-294 -295h-109z" />
<glyph unicode="&#xde;" horiz-adv-x="1290" d="M10 0l316 1462h139l-53 -239h450q170 0 279.5 -97.5t109.5 -263.5q0 -223 -139 -349t-364 -126h-517l-81 -387h-140zM258 506h494q158 0 259 90t101 246q0 262 -297 262h-428z" />
<glyph unicode="&#xdf;" horiz-adv-x="1062" d="M-23 0l242 1116q79 377 432 377q162 0 261.5 -78t99.5 -227t-89 -250.5t-225 -120.5q115 -29 178.5 -107.5t63.5 -197.5q0 -217 -146.5 -370.5t-363.5 -153.5h-37q-55 0 -98 8l22 106q42 -6 93 -6q166 0 283.5 114t117.5 272.5t-93 215t-257 56.5l24 108q156 0 277 75 t121 228q0 102 -62.5 160.5t-184.5 58.5t-190.5 -74.5t-103.5 -226.5l-236 -1083h-129z" />
<glyph unicode="&#xe0;" horiz-adv-x="1062" d="M-18 264.5q0 151.5 99 224t200.5 90t230.5 24.5t183.5 20.5t85 58.5t30.5 145q0 152 -223 152q-298 0 -332 -238h-129q25 172 145.5 259t279 87t273.5 -55t115 -180q0 -78 -25.5 -185.5t-41 -181t-42 -189.5t-26.5 -158t67 -42l52 4l-19 -102q-47 -10 -103 -10t-86 29.5 t-30 84.5l4 58l-4 4q-53 -90 -153.5 -142.5t-235 -52.5t-225 72t-90.5 223.5zM111 268q0 -94 67.5 -142t167.5 -48q154 0 250 82t129 227l41 178l-4 4q-46 -59 -226 -59t-302.5 -47t-122.5 -195zM418 1493h152l168 -295h-103z" />
<glyph unicode="&#xe1;" horiz-adv-x="1062" d="M-18 264.5q0 151.5 99 224t200.5 90t230.5 24.5t183.5 20.5t85 58.5t30.5 145q0 152 -223 152q-298 0 -332 -238h-129q25 172 145.5 259t279 87t273.5 -55t115 -180q0 -78 -25.5 -185.5t-41 -181t-42 -189.5t-26.5 -158t67 -42l52 4l-19 -102q-47 -10 -103 -10t-86 29.5 t-30 84.5l4 58l-4 4q-53 -90 -153.5 -142.5t-235 -52.5t-225 72t-90.5 223.5zM111 268q0 -94 67.5 -142t167.5 -48q154 0 250 82t129 227l41 178l-4 4q-46 -59 -226 -59t-302.5 -47t-122.5 -195zM514 1198l238 295h165l-294 -295h-109z" />
<glyph unicode="&#xe2;" horiz-adv-x="1062" d="M-18 264.5q0 151.5 99 224t200.5 90t230.5 24.5t183.5 20.5t85 58.5t30.5 145q0 152 -223 152q-298 0 -332 -238h-129q25 172 145.5 259t279 87t273.5 -55t115 -180q0 -78 -25.5 -185.5t-41 -181t-42 -189.5t-26.5 -158t67 -42l52 4l-19 -102q-47 -10 -103 -10t-86 29.5 t-30 84.5l4 58l-4 4q-53 -90 -153.5 -142.5t-235 -52.5t-225 72t-90.5 223.5zM111 268q0 -94 67.5 -142t167.5 -48q154 0 250 82t129 227l41 178l-4 4q-46 -59 -226 -59t-302.5 -47t-122.5 -195zM336 1198l278 295h129l177 -295h-117l-135 217l-207 -217h-125z" />
<glyph unicode="&#xe3;" horiz-adv-x="1062" d="M-18 264.5q0 151.5 99 224t200.5 90t230.5 24.5t183.5 20.5t85 58.5t30.5 145q0 152 -223 152q-298 0 -332 -238h-129q25 172 145.5 259t279 87t273.5 -55t115 -180q0 -78 -25.5 -185.5t-41 -181t-42 -189.5t-26.5 -158t67 -42l52 4l-19 -102q-47 -10 -103 -10t-86 29.5 t-30 84.5l4 58l-4 4q-53 -90 -153.5 -142.5t-235 -52.5t-225 72t-90.5 223.5zM111 268q0 -94 67.5 -142t167.5 -48q154 0 250 82t129 227l41 178l-4 4q-46 -59 -226 -59t-302.5 -47t-122.5 -195zM334 1229q25 90 68.5 148.5t121.5 58.5q55 0 127 -44t99.5 -57.5t58.5 -13.5 t57.5 39t36.5 76h82q-32 -137 -113 -188q-30 -19 -69 -19t-66.5 11t-76 38t-84 46t-65.5 19t-57.5 -36.5t-35.5 -77.5h-84z" />
<glyph unicode="&#xe4;" horiz-adv-x="1062" d="M-18 264.5q0 151.5 99 224t200.5 90t230.5 24.5t183.5 20.5t85 58.5t30.5 145q0 152 -223 152q-298 0 -332 -238h-129q25 172 145.5 259t279 87t273.5 -55t115 -180q0 -78 -25.5 -185.5t-41 -181t-42 -189.5t-26.5 -158t67 -42l52 4l-19 -102q-47 -10 -103 -10t-86 29.5 t-30 84.5l4 58l-4 4q-53 -90 -153.5 -142.5t-235 -52.5t-225 72t-90.5 223.5zM111 268q0 -94 67.5 -142t167.5 -48q154 0 250 82t129 227l41 178l-4 4q-46 -59 -226 -59t-302.5 -47t-122.5 -195zM418 1231l39 209h131l-41 -209h-129zM743 1231l39 209h131l-41 -209h-129z " />
<glyph unicode="&#xe5;" horiz-adv-x="1062" d="M-18 264.5q0 151.5 99 224t200.5 90t230.5 24.5t183.5 20.5t85 58.5t30.5 145q0 152 -223 152q-298 0 -332 -238h-129q25 172 145.5 259t279 87t273.5 -55t115 -180q0 -78 -25.5 -185.5t-41 -181t-42 -189.5t-26.5 -158t67 -42l52 4l-19 -102q-47 -10 -103 -10t-86 29.5 t-30 84.5l4 58l-4 4q-53 -90 -153.5 -142.5t-235 -52.5t-225 72t-90.5 223.5zM111 268q0 -94 67.5 -142t167.5 -48q154 0 250 82t129 227l41 178l-4 4q-46 -59 -226 -59t-302.5 -47t-122.5 -195zM465 1378q0 84 60.5 144.5t142.5 60.5t143 -59.5t61 -144.5t-59 -144 t-144 -59t-144.5 59t-59.5 143zM535 1379.5q0 -54.5 39.5 -94.5t93.5 -40q53 0 94 41t41 93t-41 93t-94 41t-93 -39.5t-40 -94z" />
<glyph unicode="&#xe6;" horiz-adv-x="1744" d="M-18 264.5q0 151.5 99 224t200.5 90t230.5 24.5t183.5 20.5t85 58.5t30.5 145q0 152 -223 152q-298 0 -332 -238h-129q25 172 145.5 259t300.5 87q121 0 219.5 -48t122.5 -167q124 215 379 215q186 0 286.5 -116.5t100.5 -313.5q0 -72 -20 -163h-789q-16 -88 -16 -138 q0 -127 80 -202.5t208 -75.5t222 69.5t127 192.5h129q-61 -188 -183 -279.5t-323 -91.5q-147 0 -243.5 70t-112.5 211q-106 -281 -441 -281q-156 0 -246.5 72t-90.5 223.5zM111 268q0 -94 67.5 -142t167.5 -48q154 0 250 82t129 227l41 178l-4 4q-46 -59 -226 -59 t-302.5 -47t-122.5 -195zM891 602h657q4 25 4 50v40q0 127 -71.5 207t-214 80t-241.5 -103.5t-134 -273.5z" />
<glyph unicode="&#xe7;" horiz-adv-x="1062" d="M29 406q0 268 156.5 474.5t416.5 206.5q178 0 286.5 -91t108.5 -269h-129q0 117 -69.5 184.5t-184.5 67.5q-217 0 -336.5 -172t-119.5 -401q0 -147 74.5 -237.5t210 -90.5t225.5 71.5t133 192.5h129q-120 -373 -494 -373l-84 -84l4 -4q33 8 87.5 8t96.5 -34.5t42 -109.5 t-68 -119t-160 -44t-188 45l29 60q86 -35 159 -35q115 0 115 84q0 41 -31.5 62.5t-77 21.5t-81.5 -19l-33 37l119 137q-162 20 -249 135t-87 296z" />
<glyph unicode="&#xe8;" horiz-adv-x="1062" d="M29 418q0 268 155.5 468.5t415.5 200.5q188 0 294.5 -112.5t106.5 -298.5q0 -104 -10 -182h-827l-6 -82q0 -150 77.5 -242t215 -92t230.5 72.5t130 189.5h129q-109 -371 -481 -371q-207 0 -318.5 120t-111.5 329zM180 602h690l2 82q0 131 -77.5 213t-220 82t-250 -109.5 t-144.5 -267.5zM418 1493h152l168 -295h-103z" />
<glyph unicode="&#xe9;" horiz-adv-x="1062" d="M29 418q0 268 155.5 468.5t415.5 200.5q188 0 294.5 -112.5t106.5 -298.5q0 -104 -10 -182h-827l-6 -82q0 -150 77.5 -242t215 -92t230.5 72.5t130 189.5h129q-109 -371 -481 -371q-207 0 -318.5 120t-111.5 329zM180 602h690l2 82q0 131 -77.5 213t-220 82t-250 -109.5 t-144.5 -267.5zM514 1198l238 295h165l-294 -295h-109z" />
<glyph unicode="&#xea;" horiz-adv-x="1062" d="M29 418q0 268 155.5 468.5t415.5 200.5q188 0 294.5 -112.5t106.5 -298.5q0 -104 -10 -182h-827l-6 -82q0 -150 77.5 -242t215 -92t230.5 72.5t130 189.5h129q-109 -371 -481 -371q-207 0 -318.5 120t-111.5 329zM180 602h690l2 82q0 131 -77.5 213t-220 82t-250 -109.5 t-144.5 -267.5zM336 1198l278 295h129l177 -295h-117l-135 217l-207 -217h-125z" />
<glyph unicode="&#xeb;" horiz-adv-x="1062" d="M29 418q0 268 155.5 468.5t415.5 200.5q188 0 294.5 -112.5t106.5 -298.5q0 -104 -10 -182h-827l-6 -82q0 -150 77.5 -242t215 -92t230.5 72.5t130 189.5h129q-109 -371 -481 -371q-207 0 -318.5 120t-111.5 329zM180 602h690l2 82q0 131 -77.5 213t-220 82t-250 -109.5 t-144.5 -267.5zM418 1231l39 209h131l-41 -209h-129zM743 1231l39 209h131l-41 -209h-129z" />
<glyph unicode="&#xec;" horiz-adv-x="378" d="M-23 0l228 1057h129l-228 -1057h-129zM137 1493h152l168 -295h-103z" />
<glyph unicode="&#xed;" horiz-adv-x="378" d="M-23 0l228 1057h129l-228 -1057h-129zM172 1198l238 295h165l-294 -295h-109z" />
<glyph unicode="&#xee;" horiz-adv-x="378" d="M-23 0l228 1057h129l-228 -1057h-129zM-6 1198l278 295h129l177 -295h-117l-135 217l-207 -217h-125z" />
<glyph unicode="&#xef;" horiz-adv-x="378" d="M-23 0l228 1057h129l-228 -1057h-129zM76 1231l39 209h131l-41 -209h-129zM401 1231l39 209h131l-41 -209h-129z" />
<glyph unicode="&#xf1;" horiz-adv-x="1099" d="M-23 0l228 1057h119l-37 -193q66 98 167 160.5t231 62.5t216 -68.5t86 -215.5q0 -47 -16 -125l-146 -678h-129l148 682q14 57 14 106q0 98 -62.5 144.5t-158.5 46.5q-143 0 -257 -118t-157 -318l-117 -543h-129zM352 1229q25 90 68.5 148.5t121.5 58.5q55 0 127 -44 t99.5 -57.5t58.5 -13.5t57.5 39t36.5 76h82q-32 -137 -113 -188q-30 -19 -69 -19t-66.5 11t-76 38t-84 46t-65.5 19t-57.5 -36.5t-35.5 -77.5h-84z" />
<glyph unicode="&#xf2;" d="M29 410q0 276 159.5 476.5t429.5 200.5q188 0 303 -110t115 -303q0 -289 -153.5 -497t-431.5 -208q-201 0 -311.5 119t-110.5 322zM158 422q0 -158 80.5 -251t236.5 -93q197 0 314.5 181t117.5 388q0 152 -79.5 242t-231.5 90q-199 0 -318.5 -174t-119.5 -383zM456 1493 h152l168 -295h-103z" />
<glyph unicode="&#xf3;" d="M29 410q0 276 159.5 476.5t429.5 200.5q188 0 303 -110t115 -303q0 -289 -153.5 -497t-431.5 -208q-201 0 -311.5 119t-110.5 322zM158 422q0 -158 80.5 -251t236.5 -93q197 0 314.5 181t117.5 388q0 152 -79.5 242t-231.5 90q-199 0 -318.5 -174t-119.5 -383zM553 1198 l238 295h165l-294 -295h-109z" />
<glyph unicode="&#xf4;" d="M29 410q0 276 159.5 476.5t429.5 200.5q188 0 303 -110t115 -303q0 -289 -153.5 -497t-431.5 -208q-201 0 -311.5 119t-110.5 322zM158 422q0 -158 80.5 -251t236.5 -93q197 0 314.5 181t117.5 388q0 152 -79.5 242t-231.5 90q-199 0 -318.5 -174t-119.5 -383zM375 1198 l278 295h129l177 -295h-117l-135 217l-207 -217h-125z" />
<glyph unicode="&#xf5;" d="M29 410q0 276 159.5 476.5t429.5 200.5q188 0 303 -110t115 -303q0 -289 -153.5 -497t-431.5 -208q-201 0 -311.5 119t-110.5 322zM158 422q0 -158 80.5 -251t236.5 -93q197 0 314.5 181t117.5 388q0 152 -79.5 242t-231.5 90q-199 0 -318.5 -174t-119.5 -383zM373 1229 q25 90 68.5 148.5t121.5 58.5q55 0 127 -44t99.5 -57.5t58.5 -13.5t57.5 39t36.5 76h82q-32 -137 -113 -188q-30 -19 -69 -19t-66.5 11t-76 38t-84 46t-65.5 19t-57.5 -36.5t-35.5 -77.5h-84z" />
<glyph unicode="&#xf6;" d="M29 410q0 276 159.5 476.5t429.5 200.5q188 0 303 -110t115 -303q0 -289 -153.5 -497t-431.5 -208q-201 0 -311.5 119t-110.5 322zM158 422q0 -158 80.5 -251t236.5 -93q197 0 314.5 181t117.5 388q0 152 -79.5 242t-231.5 90q-199 0 -318.5 -174t-119.5 -383zM457 1231 l39 209h131l-41 -209h-129zM782 1231l39 209h131l-41 -209h-129z" />
<glyph unicode="&#xf7;" horiz-adv-x="1228" d="M100 461v108h1030v-108h-1030zM500 102q0 49 32.5 82t80.5 33t82 -33.5t34 -79t-33.5 -81t-80 -35.5t-81 32.5t-34.5 81.5zM500 928q0 49 32.5 81.5t80.5 32.5t82 -33.5t34 -78.5t-33.5 -81t-80 -36t-81 33t-34.5 82z" />
<glyph unicode="&#xf8;" d="M-29 0l133 133q-76 115 -75 277q0 276 159.5 476.5t429.5 200.5q197 0 312 -120l119 118l45 -43l-123 -124q66 -102 65 -244q0 -289 -153.5 -497t-431.5 -208q-193 0 -308 117l-131 -131zM158 422q0 -117 41 -193l639 645q-82 104 -242 105q-199 0 -318.5 -174 t-119.5 -383zM233 178q83 -100 242 -100q197 0 314.5 181t117.5 388q0 96 -35 172z" />
<glyph unicode="&#xf9;" horiz-adv-x="1099" d="M41 254q0 47 16 125l146 678h129l-148 -682q-14 -57 -14 -107q0 -98 62.5 -144t158.5 -46q143 0 257 117.5t157 318.5l117 543h129l-228 -1057h-118l36 193q-66 -98 -167 -161t-231 -63t-216 68.5t-86 216.5zM436 1493h152l168 -295h-103z" />
<glyph unicode="&#xfa;" horiz-adv-x="1099" d="M41 254q0 47 16 125l146 678h129l-148 -682q-14 -57 -14 -107q0 -98 62.5 -144t158.5 -46q143 0 257 117.5t157 318.5l117 543h129l-228 -1057h-118l36 193q-66 -98 -167 -161t-231 -63t-216 68.5t-86 216.5zM532 1198l238 295h165l-294 -295h-109z" />
<glyph unicode="&#xfb;" horiz-adv-x="1099" d="M41 254q0 47 16 125l146 678h129l-148 -682q-14 -57 -14 -107q0 -98 62.5 -144t158.5 -46q143 0 257 117.5t157 318.5l117 543h129l-228 -1057h-118l36 193q-66 -98 -167 -161t-231 -63t-216 68.5t-86 216.5zM334 1198l278 295h129l177 -295h-117l-135 217l-207 -217 h-125z" />
<glyph unicode="&#xfc;" horiz-adv-x="1099" d="M41 254q0 47 16 125l146 678h129l-148 -682q-14 -57 -14 -107q0 -98 62.5 -144t158.5 -46q143 0 257 117.5t157 318.5l117 543h129l-228 -1057h-118l36 193q-66 -98 -167 -161t-231 -63t-216 68.5t-86 216.5zM416 1231l39 209h131l-41 -209h-129zM741 1231l39 209h131 l-41 -209h-129z" />
<glyph unicode="&#xfd;" horiz-adv-x="948" d="M-113 -381l25 105l111 -7q99 0 165 115l97 168l-195 1057h135l152 -897l491 897h140l-752 -1307q-80 -141 -256 -141q-20 0 -61 5t-52 5zM457 1198l238 295h165l-294 -295h-109z" />
<glyph unicode="&#xfe;" horiz-adv-x="1175" d="M-94 -391l399 1853h129l-127 -592q63 109 151.5 163t223.5 54q197 0 299 -116.5t102 -315.5q0 -260 -161.5 -473t-415.5 -213q-135 0 -226.5 58.5t-111.5 183.5l-133 -602h-129zM209 383q0 -141 78 -223t217 -82q207 0 328.5 183t121.5 403q0 143 -71.5 229t-212.5 86 q-209 0 -335 -187.5t-126 -408.5z" />
<glyph unicode="&#xff;" horiz-adv-x="948" d="M-113 -381l25 105l111 -7q99 0 165 115l97 168l-195 1057h135l152 -897l491 897h140l-752 -1307q-80 -141 -256 -141q-20 0 -61 5t-52 5zM361 1231l39 209h131l-41 -209h-129zM686 1231l39 209h131l-41 -209h-129z" />
<glyph unicode="&#x152;" horiz-adv-x="2123" d="M94 610q0 350 213 616.5t563 266.5q133 0 249 -51t184 -160l38 180h910l-27 -119h-778l-111 -528h717l-27 -119h-716l-121 -577h797l-27 -119h-932l29 131l-4 4q-61 -84 -166 -125t-219 -41q-285 0 -428.5 175t-143.5 466zM233 606q0 -223 111 -370.5t328 -147.5 q162 0 284.5 93t155.5 249l131 621l8 57q0 123 -122.5 194.5t-270.5 71.5q-283 0 -454 -233.5t-171 -534.5z" />
<glyph unicode="&#x153;" horiz-adv-x="1857" d="M45 395q0 270 158.5 481t419.5 211q133 0 228 -69.5t112 -198.5q68 127 182.5 197.5t257.5 70.5q190 0 283.5 -119.5t93.5 -308.5q0 -52 -23 -165h-792q-17 -53 -17 -140q0 -127 81 -201.5t210 -74.5t219 68.5t127 193.5h129q-55 -172 -180 -271.5t-303 -99.5 q-309 0 -373 275q-59 -125 -171 -200t-249 -75q-188 0 -290.5 115t-102.5 311zM174 399q0 -143 69.5 -232t209.5 -89q213 0 316 198.5t103 432.5q0 123 -71.5 196.5t-196.5 73.5q-201 0 -315.5 -183.5t-114.5 -396.5zM985 602h660l6 90q0 127 -71 207t-218.5 80 t-243.5 -103.5t-133 -273.5z" />
<glyph unicode="&#x178;" horiz-adv-x="1175" d="M135 1462h148l329 -741l613 741h170l-733 -872l-130 -590h-141l133 604zM475 1596l39 209h131l-41 -209h-129zM800 1596l39 209h131l-41 -209h-129z" />
<glyph unicode="&#x2000;" horiz-adv-x="974" />
<glyph unicode="&#x2001;" horiz-adv-x="1948" />
<glyph unicode="&#x2002;" horiz-adv-x="974" />
<glyph unicode="&#x2003;" horiz-adv-x="1948" />
<glyph unicode="&#x2004;" horiz-adv-x="649" />
<glyph unicode="&#x2005;" horiz-adv-x="487" />
<glyph unicode="&#x2006;" horiz-adv-x="324" />
<glyph unicode="&#x2007;" horiz-adv-x="324" />
<glyph unicode="&#x2008;" horiz-adv-x="243" />
<glyph unicode="&#x2009;" horiz-adv-x="389" />
<glyph unicode="&#x200a;" horiz-adv-x="108" />
<glyph unicode="&#x2010;" horiz-adv-x="757" d="M78 504l24 119h514l-24 -119h-514z" />
<glyph unicode="&#x2011;" horiz-adv-x="757" d="M78 504l24 119h514l-24 -119h-514z" />
<glyph unicode="&#x2012;" horiz-adv-x="757" d="M78 504l24 119h514l-24 -119h-514z" />
<glyph unicode="&#x2013;" horiz-adv-x="1024" d="M-49 504l24 119h1024l-24 -119h-1024z" />
<glyph unicode="&#x2014;" horiz-adv-x="2048" d="M-49 504l24 119h2048l-24 -119h-2048z" />
<glyph unicode="&#x2018;" horiz-adv-x="569" d="M262 967l68 284q23 96 72 140.5t153 70.5l-16 -82q-66 -20 -92.5 -65t-49.5 -133h86l-49 -215h-172z" />
<glyph unicode="&#x2019;" horiz-adv-x="569" d="M225 965l17 82q66 20 92 65t49 133h-86l49 217h172l-67 -286q-23 -96 -72 -140.5t-154 -70.5z" />
<glyph unicode="&#x201a;" horiz-adv-x="569" d="M-25 -281l17 82q66 20 92.5 65.5t48.5 133.5h-86l49 217h172l-67 -287q-23 -96 -72 -140t-154 -71z" />
<glyph unicode="&#x201c;" horiz-adv-x="757" d="M195 967l67 284q23 96 72 140.5t153 70.5l-16 -82q-66 -20 -92.5 -65t-48.5 -133h86l-49 -215h-172zM508 967l67 284q23 96 72 140.5t154 70.5l-17 -82q-66 -20 -92 -65t-49 -133h86l-49 -215h-172z" />
<glyph unicode="&#x201d;" horiz-adv-x="757" d="M137 965l17 82q66 20 92 65t49 133h-86l49 217h172l-68 -286q-23 -96 -71.5 -140.5t-153.5 -70.5zM451 965l16 82q66 20 92.5 65t48.5 133h-86l49 217h172l-67 -286q-23 -96 -72 -140.5t-153 -70.5z" />
<glyph unicode="&#x201e;" horiz-adv-x="757" d="M-72 -281l17 82q66 20 92 65.5t49 133.5h-86l49 217h172l-67 -287q-23 -96 -72 -140t-154 -71zM242 -281l16 82q66 20 92.5 65.5t48.5 133.5h-86l49 217h173l-68 -287q-23 -96 -72 -140t-153 -71z" />
<glyph unicode="&#x2022;" horiz-adv-x="1024" d="M147 730.5q0 152.5 106.5 259t258.5 106.5t259.5 -105.5t107.5 -259.5t-106.5 -260t-259.5 -106t-259.5 106.5t-106.5 259z" />
<glyph unicode="&#x2026;" horiz-adv-x="2048" d="M106 0l48 217h174l-49 -217h-173zM791 0l47 217h174l-49 -217h-172zM1475 0l47 217h174l-49 -217h-172z" />
<glyph unicode="&#x202f;" horiz-adv-x="389" />
<glyph unicode="&#x2039;" horiz-adv-x="530" d="M104 526l31 131l326 232l-31 -139l-237 -172l153 -209l-24 -129z" />
<glyph unicode="&#x203a;" horiz-adv-x="530" d="M20 240l31 139l238 172l-154 209l25 129l217 -287l-31 -131z" />
<glyph unicode="&#x205f;" horiz-adv-x="487" />
<glyph unicode="&#x2122;" horiz-adv-x="2027" d="M168 1370v92h657v-92h-274v-752h-109v752h-274zM975 618v844h174l272 -684l265 684h174v-844h-109v746l-303 -746h-62l-299 746l-4 -746h-108z" />
<glyph unicode="&#xe000;" horiz-adv-x="1054" d="M0 0v1055h1055v-1055h-1055z" />
</font>
</defs>
</svg>
